<?xml version="1.0" encoding="UTF-8" standalone="no"?><!DOCTYPE svg PUBLIC "-//W3C//DTD SVG 1.1//EN" "http://www.w3.org/Graphics/SVG/1.1/DTD/svg11.dtd"><svg width="100%" height="100%" viewBox="0 0 79 84" version="1.1" xmlns="http://www.w3.org/2000/svg" xmlns:xlink="http://www.w3.org/1999/xlink" xml:space="preserve" xmlns:serif="http://www.serif.com/" style="fill-rule:evenodd;clip-rule:evenodd;stroke-linejoin:round;stroke-miterlimit:2;"><path d="M78.251,0c-31.617,5.277 -97.079,24.588 -73.07,80.5c57.966,18.502 70.867,-48.518 73.07,-80.5" style="fill:#fff;fill-rule:nonzero;"/><path d="M75.027,21.873c0.147,0 0.293,0.011 0.442,0.011c1.508,-8.034 2.351,-15.631 2.782,-21.884c-27.135,4.526 -79.187,19.392 -78.235,58.851c17.298,-22.478 44.453,-36.978 75.011,-36.978" style="fill:#00aeef;"/><path d="M11.863,29.061c-11.447,12.139 -16.41,28.78 -6.682,51.439c11.768,3.755 21.679,3.986 30.02,1.704c-12.818,-14.456 -21.293,-32.848 -23.338,-53.143" style="fill:#bed730;"/><path d="M0.015,58.521c0.001,0.109 0.001,0.217 0.003,0.327c4.271,-5.549 9.144,-10.609 14.519,-15.087c-1.264,-4.761 -2.167,-9.669 -2.674,-14.694c-0.115,0.122 -0.229,0.245 -0.343,0.368c-0.185,0.2 -0.371,0.4 -0.553,0.604c-0.177,0.197 -0.349,0.397 -0.523,0.596c-0.176,0.203 -0.353,0.406 -0.526,0.611c-0.174,0.207 -0.343,0.416 -0.513,0.626c-0.165,0.202 -0.33,0.403 -0.491,0.607c-0.175,0.223 -0.345,0.449 -0.516,0.674c-0.148,0.196 -0.299,0.39 -0.444,0.588c-0.183,0.249 -0.358,0.503 -0.536,0.755c-0.126,0.179 -0.255,0.357 -0.378,0.538c-0.221,0.324 -0.434,0.654 -0.646,0.983c-0.072,0.113 -0.149,0.224 -0.22,0.337c-0.283,0.449 -0.556,0.902 -0.821,1.36c-0.05,0.087 -0.096,0.175 -0.145,0.262c-0.213,0.374 -0.423,0.75 -0.624,1.13c-0.074,0.14 -0.143,0.283 -0.215,0.423c-0.17,0.332 -0.339,0.663 -0.5,0.999c-0.078,0.163 -0.151,0.328 -0.227,0.492c-0.147,0.319 -0.294,0.638 -0.434,0.962c-0.075,0.174 -0.145,0.352 -0.218,0.528c-0.132,0.318 -0.263,0.637 -0.386,0.96c-0.069,0.181 -0.134,0.364 -0.201,0.547c-0.118,0.322 -0.235,0.645 -0.345,0.972c-0.063,0.187 -0.121,0.375 -0.182,0.564c-0.104,0.328 -0.207,0.657 -0.303,0.99c-0.055,0.189 -0.107,0.381 -0.16,0.572c-0.092,0.337 -0.181,0.675 -0.264,1.016c-0.047,0.192 -0.092,0.385 -0.136,0.578c-0.08,0.347 -0.154,0.695 -0.224,1.045c-0.039,0.193 -0.076,0.387 -0.111,0.58c-0.067,0.358 -0.127,0.719 -0.184,1.082c-0.03,0.191 -0.059,0.382 -0.086,0.575c-0.053,0.372 -0.099,0.748 -0.142,1.126c-0.02,0.187 -0.042,0.375 -0.06,0.563c-0.039,0.391 -0.069,0.785 -0.097,1.181c-0.012,0.181 -0.026,0.359 -0.036,0.54c-0.024,0.416 -0.038,0.837 -0.049,1.259c-0.005,0.165 -0.011,0.329 -0.013,0.495c-0.008,0.452 -0.004,0.908 0.004,1.366" style="fill:#00a650;"/><path d="M58.925,4.259c0.176,1.891 0.278,3.806 0.278,5.743c0,32.391 -25.509,58.82 -57.536,60.307c0.834,3.255 1.994,6.648 3.514,10.191c57.967,18.503 70.868,-48.517 73.07,-80.5c-5.605,0.935 -12.28,2.317 -19.326,4.259" style="fill:#d7df22;"/><path d="M8.436,81.453c0.547,0.149 1.091,0.292 1.629,0.425c0.298,0.074 0.595,0.144 0.891,0.213c0.512,0.119 1.02,0.231 1.525,0.336c0.283,0.059 0.567,0.12 0.848,0.175c0.58,0.113 1.153,0.214 1.724,0.309c0.187,0.03 0.378,0.068 0.564,0.097c0.735,0.115 1.46,0.213 2.177,0.298c0.248,0.028 0.491,0.049 0.737,0.075c0.484,0.05 0.965,0.097 1.44,0.134c0.288,0.022 0.573,0.04 0.858,0.057c0.435,0.027 0.867,0.048 1.295,0.063c0.281,0.01 0.563,0.02 0.842,0.025c0.455,0.008 0.906,0.007 1.354,0.003c0.234,-0.002 0.47,0 0.703,-0.005c0.655,-0.016 1.302,-0.044 1.941,-0.087c0.193,-0.013 0.381,-0.034 0.572,-0.049c0.465,-0.037 0.927,-0.078 1.384,-0.129c0.25,-0.028 0.497,-0.061 0.744,-0.093c0.399,-0.052 0.794,-0.108 1.187,-0.17c0.247,-0.039 0.492,-0.079 0.736,-0.122c0.411,-0.074 0.817,-0.154 1.222,-0.238c0.206,-0.043 0.414,-0.083 0.618,-0.129c0.598,-0.135 1.191,-0.279 1.773,-0.438c-4.593,-5.18 -8.617,-10.873 -11.998,-16.97c-6.639,2.934 -13.898,4.721 -21.536,5.076c0.196,0.761 0.413,1.532 0.644,2.309c0.053,0.178 0.111,0.358 0.166,0.538c0.182,0.592 0.374,1.189 0.578,1.791c0.079,0.235 0.161,0.472 0.244,0.709c0.202,0.579 0.417,1.162 0.639,1.749c0.085,0.224 0.167,0.446 0.255,0.671c0.312,0.801 0.639,1.607 0.989,2.423c0.83,0.266 1.648,0.508 2.46,0.738c0.267,0.076 0.53,0.144 0.795,0.216" style="fill:#8cc63f;"/><path d="M75.959,0.398c-0.659,0.118 -1.328,0.242 -2.011,0.372c-0.074,0.014 -0.149,0.029 -0.224,0.043c-4.538,0.871 -9.565,2.004 -14.8,3.446c0.177,1.891 0.278,3.806 0.278,5.743c0,4.632 -0.538,9.135 -1.526,13.468c5.625,-1.044 11.423,-1.596 17.351,-1.596c0.147,0 0.293,0.011 0.442,0.011c0.751,-4.003 1.337,-7.895 1.79,-11.569c0.003,-0.022 0.005,-0.044 0.008,-0.066c0.108,-0.879 0.208,-1.744 0.3,-2.596c0.011,-0.094 0.02,-0.188 0.031,-0.282c0.083,-0.774 0.16,-1.537 0.233,-2.287c0.006,-0.072 0.014,-0.146 0.021,-0.219c0.072,-0.758 0.137,-1.499 0.197,-2.228c0.014,-0.173 0.028,-0.344 0.041,-0.514c0.058,-0.722 0.113,-1.434 0.161,-2.123c-0.631,0.105 -1.279,0.217 -1.936,0.334c-0.119,0.021 -0.236,0.042 -0.356,0.063" style="fill:#00a650;"/></svg>