<?xml version="1.0" encoding="UTF-8" standalone="no"?><!DOCTYPE svg PUBLIC "-//W3C//DTD SVG 1.1//EN" "http://www.w3.org/Graphics/SVG/1.1/DTD/svg11.dtd"><svg width="100%" height="100%" viewBox="0 0 232 53" version="1.1" xmlns="http://www.w3.org/2000/svg" xmlns:xlink="http://www.w3.org/1999/xlink" xml:space="preserve" xmlns:serif="http://www.serif.com/" style="fill-rule:evenodd;clip-rule:evenodd;stroke-linejoin:round;stroke-miterlimit:2;"><path d="M49.065,0c-19.825,3.309 -60.87,15.417 -45.816,50.475c36.346,11.601 44.435,-30.421 45.816,-50.475" style="fill:#fff;fill-rule:nonzero;"/><path d="M47.043,13.715c0.093,0 0.184,0.007 0.277,0.007c0.946,-5.037 1.475,-9.801 1.744,-13.722c-17.014,2.838 -49.651,12.158 -49.054,36.902c10.846,-14.095 27.873,-23.187 47.033,-23.187" style="fill:#00aeef;"/><path d="M7.438,18.222c-7.177,7.611 -10.289,18.045 -4.189,32.253c7.378,2.354 13.593,2.498 18.822,1.068c-8.037,-9.064 -13.35,-20.596 -14.633,-33.321" style="fill:#bed730;"/><path d="M0.009,36.693c0.001,0.068 0.001,0.136 0.002,0.205c2.678,-3.478 5.734,-6.652 9.103,-9.46c-0.792,-2.985 -1.357,-6.062 -1.675,-9.213c-0.073,0.076 -0.144,0.153 -0.216,0.23c-0.116,0.127 -0.233,0.253 -0.346,0.38c-0.111,0.124 -0.22,0.249 -0.329,0.374c-0.11,0.127 -0.221,0.254 -0.329,0.381c-0.109,0.13 -0.215,0.262 -0.322,0.393c-0.103,0.127 -0.207,0.253 -0.308,0.382c-0.11,0.14 -0.216,0.281 -0.323,0.422c-0.093,0.123 -0.188,0.245 -0.278,0.369c-0.115,0.156 -0.225,0.314 -0.336,0.473c-0.08,0.113 -0.161,0.223 -0.238,0.337c-0.138,0.204 -0.272,0.41 -0.405,0.617c-0.045,0.071 -0.093,0.14 -0.138,0.212c-0.177,0.281 -0.349,0.565 -0.515,0.852c-0.031,0.054 -0.06,0.109 -0.091,0.163c-0.133,0.236 -0.265,0.471 -0.391,0.71c-0.046,0.087 -0.089,0.177 -0.135,0.265c-0.106,0.208 -0.212,0.416 -0.313,0.627c-0.049,0.1 -0.095,0.206 -0.142,0.307c-0.092,0.201 -0.185,0.401 -0.273,0.604c-0.046,0.109 -0.09,0.221 -0.136,0.331c-0.083,0.2 -0.165,0.399 -0.242,0.602c-0.044,0.113 -0.084,0.228 -0.126,0.342c-0.075,0.202 -0.147,0.405 -0.216,0.611c-0.04,0.117 -0.076,0.235 -0.115,0.352c-0.065,0.207 -0.129,0.413 -0.19,0.622c-0.035,0.118 -0.067,0.239 -0.1,0.358c-0.058,0.212 -0.113,0.423 -0.166,0.636c-0.029,0.122 -0.057,0.243 -0.085,0.364c-0.049,0.217 -0.097,0.435 -0.141,0.655c-0.024,0.122 -0.047,0.243 -0.069,0.364c-0.041,0.225 -0.08,0.45 -0.115,0.678c-0.019,0.12 -0.037,0.24 -0.054,0.36c-0.033,0.235 -0.062,0.47 -0.089,0.707c-0.013,0.117 -0.027,0.234 -0.038,0.353c-0.024,0.245 -0.043,0.492 -0.061,0.74c-0.008,0.112 -0.016,0.226 -0.022,0.339c-0.015,0.261 -0.024,0.525 -0.031,0.79c-0.003,0.103 -0.007,0.205 -0.008,0.31c-0.005,0.283 -0.003,0.569 0.002,0.856" style="fill:#00a650;"/><path d="M36.947,2.67c0.11,1.187 0.174,2.387 0.174,3.602c0,20.309 -15.995,36.88 -36.076,37.813c0.523,2.04 1.25,4.168 2.204,6.39c36.345,11.601 44.435,-30.421 45.816,-50.475c-3.515,0.586 -7.7,1.452 -12.118,2.67" style="fill:#d7df22;"/><path d="M5.289,51.072c0.343,0.094 0.684,0.184 1.021,0.267c0.187,0.046 0.374,0.09 0.559,0.133c0.321,0.075 0.64,0.145 0.957,0.211c0.177,0.037 0.355,0.076 0.531,0.11c0.364,0.07 0.724,0.133 1.08,0.193c0.119,0.02 0.238,0.043 0.355,0.061c0.46,0.072 0.915,0.133 1.365,0.186c0.155,0.019 0.308,0.031 0.462,0.048c0.303,0.031 0.605,0.061 0.902,0.084c0.181,0.014 0.36,0.025 0.539,0.036c0.272,0.017 0.543,0.029 0.812,0.038c0.176,0.007 0.353,0.014 0.527,0.017c0.286,0.006 0.569,0.005 0.849,0.002c0.147,-0.002 0.295,0 0.441,-0.003c0.411,-0.011 0.817,-0.028 1.218,-0.055c0.12,-0.008 0.238,-0.021 0.358,-0.031c0.292,-0.024 0.582,-0.048 0.868,-0.08c0.156,-0.018 0.311,-0.039 0.467,-0.059c0.25,-0.032 0.498,-0.067 0.744,-0.106c0.154,-0.025 0.308,-0.05 0.461,-0.077c0.257,-0.045 0.513,-0.096 0.766,-0.149c0.13,-0.028 0.26,-0.053 0.388,-0.082c0.375,-0.084 0.747,-0.175 1.112,-0.273c-2.88,-3.249 -5.403,-6.819 -7.523,-10.641c-4.163,1.839 -8.715,2.96 -13.504,3.183c0.123,0.477 0.259,0.961 0.404,1.447c0.033,0.111 0.07,0.225 0.104,0.338c0.114,0.371 0.235,0.745 0.362,1.123c0.05,0.147 0.102,0.296 0.153,0.444c0.128,0.363 0.262,0.729 0.402,1.097c0.053,0.141 0.104,0.279 0.159,0.421c0.196,0.502 0.4,1.008 0.62,1.519c0.52,0.165 1.034,0.319 1.542,0.462c0.168,0.048 0.333,0.091 0.499,0.136" style="fill:#8cc63f;"/><path d="M47.628,0.249c-0.413,0.074 -0.833,0.151 -1.261,0.233c-0.047,0.009 -0.093,0.019 -0.141,0.027c-2.845,0.547 -5.997,1.257 -9.279,2.161c0.11,1.186 0.174,2.387 0.174,3.601c0,2.904 -0.338,5.728 -0.957,8.444c3.527,-0.654 7.162,-1 10.879,-1c0.093,0 0.184,0.007 0.277,0.007c0.472,-2.51 0.839,-4.951 1.123,-7.254c0.001,-0.014 0.003,-0.028 0.005,-0.041c0.067,-0.551 0.13,-1.094 0.188,-1.628c0.007,-0.059 0.013,-0.118 0.019,-0.178c0.053,-0.484 0.101,-0.963 0.146,-1.433c0.004,-0.045 0.009,-0.092 0.014,-0.137c0.044,-0.476 0.085,-0.941 0.123,-1.398c0.009,-0.108 0.018,-0.216 0.026,-0.322c0.037,-0.452 0.071,-0.898 0.101,-1.331c-0.396,0.065 -0.803,0.137 -1.214,0.21c-0.075,0.013 -0.148,0.026 -0.223,0.039" style="fill:#00a650;"/><path d="M60.389,23.458c0,-0.62 -0.117,-1.206 -0.352,-1.756c-0.234,-0.55 -0.556,-1.029 -0.965,-1.437c-0.409,-0.409 -0.888,-0.731 -1.439,-0.964c-0.551,-0.235 -1.142,-0.352 -1.775,-0.352c-0.621,0 -1.207,0.117 -1.758,0.352c-0.55,0.233 -1.03,0.555 -1.439,0.964c-0.409,0.408 -0.73,0.887 -0.965,1.437c-0.235,0.55 -0.352,1.136 -0.352,1.756l0,6.193c0,0.632 0.117,1.223 0.352,1.773c0.235,0.55 0.556,1.029 0.965,1.437c0.409,0.41 0.889,0.731 1.439,0.964c0.551,0.235 1.137,0.351 1.758,0.351c0.633,0 1.224,-0.116 1.775,-0.351c0.551,-0.233 1.03,-0.554 1.439,-0.964c0.409,-0.408 0.731,-0.887 0.965,-1.437c0.235,-0.55 0.352,-1.141 0.352,-1.773l0,-6.193Zm1.497,8.747c-0.344,0.791 -0.81,1.481 -1.399,2.069c-0.589,0.59 -1.281,1.056 -2.077,1.399c-0.796,0.344 -1.646,0.515 -2.552,0.515c-0.905,0 -1.752,-0.171 -2.543,-0.515c-0.791,-0.343 -1.48,-0.809 -2.069,-1.399c-0.589,-0.588 -1.055,-1.278 -1.399,-2.069c-0.343,-0.789 -0.515,-1.638 -0.515,-2.542l0,-6.199c0,-0.905 0.172,-1.753 0.515,-2.544c0.344,-0.79 0.81,-1.481 1.399,-2.069c0.589,-0.588 1.278,-1.054 2.069,-1.398c0.791,-0.344 1.638,-0.516 2.543,-0.516c0.884,0 1.712,0.162 2.487,0.484c0.774,0.32 1.455,0.76 2.044,1.315l0,-7.998c0,-0.338 0.104,-0.588 0.311,-0.752c0.207,-0.164 0.436,-0.245 0.687,-0.245c0.251,0 0.482,0.081 0.695,0.245c0.212,0.164 0.319,0.414 0.319,0.752l0,18.925c0,0.904 -0.172,1.753 -0.515,2.542" style="fill:#231f20;fill-rule:nonzero;"/><path d="M77.139,23.464c0,-0.622 -0.118,-1.207 -0.352,-1.759c-0.234,-0.55 -0.556,-1.03 -0.965,-1.438c-0.409,-0.409 -0.889,-0.731 -1.439,-0.966c-0.551,-0.234 -1.142,-0.352 -1.775,-0.352c-0.621,0 -1.207,0.118 -1.758,0.352c-0.551,0.235 -1.031,0.557 -1.439,0.966c-0.409,0.408 -0.731,0.888 -0.965,1.438c-0.235,0.552 -0.352,1.137 -0.352,1.759l0,1.341l9.045,0l0,-1.341Zm1.709,3.05c-0.202,0.202 -0.439,0.303 -0.711,0.303l-10.043,0l0,2.839c0,0.609 0.131,1.187 0.392,1.73c0.262,0.544 0.616,1.023 1.064,1.436c0.446,0.413 0.964,0.743 1.553,0.988c0.589,0.245 1.205,0.366 1.849,0.366c0.316,0 0.656,-0.028 1.022,-0.089c0.365,-0.06 0.72,-0.156 1.063,-0.286c0.344,-0.131 0.663,-0.294 0.957,-0.491c0.294,-0.197 0.54,-0.436 0.736,-0.72c0.12,-0.152 0.251,-0.262 0.392,-0.326c0.142,-0.067 0.278,-0.099 0.409,-0.099c0.273,0 0.521,0.093 0.745,0.278c0.223,0.186 0.335,0.415 0.335,0.687c0,0.207 -0.066,0.409 -0.196,0.605c-0.023,0.034 -0.055,0.072 -0.098,0.115c-0.055,0.076 -0.148,0.185 -0.279,0.326c-0.654,0.693 -1.431,1.202 -2.33,1.526c-0.9,0.324 -1.819,0.487 -2.756,0.487c-0.883,0 -1.737,-0.166 -2.56,-0.499c-0.823,-0.332 -1.554,-0.793 -2.191,-1.382c-0.639,-0.589 -1.151,-1.281 -1.538,-2.077c-0.387,-0.796 -0.581,-1.653 -0.581,-2.568l0,-6.199c0,-0.905 0.172,-1.753 0.515,-2.544c0.344,-0.79 0.81,-1.48 1.399,-2.069c0.588,-0.588 1.278,-1.054 2.069,-1.398c0.79,-0.343 1.638,-0.515 2.543,-0.515c0.905,0 1.756,0.172 2.552,0.515c0.796,0.344 1.488,0.81 2.077,1.398c0.589,0.589 1.055,1.279 1.399,2.069c0.343,0.791 0.515,1.639 0.515,2.544l0,2.355c0,0.262 -0.101,0.494 -0.303,0.695" style="fill:#231f20;fill-rule:nonzero;"/><path d="M92.514,19.278c0,0.271 -0.104,0.509 -0.311,0.711c-0.207,0.201 -0.452,0.303 -0.736,0.303c-0.229,0 -0.463,-0.104 -0.703,-0.312c-0.011,0 -0.027,-0.011 -0.049,-0.033c-0.022,-0.01 -0.041,-0.023 -0.057,-0.04c-0.017,-0.016 -0.036,-0.035 -0.058,-0.058c-0.349,-0.283 -0.747,-0.504 -1.194,-0.662c-0.447,-0.158 -0.911,-0.237 -1.39,-0.237c-1.21,0 -2.154,0.412 -2.83,1.234c-0.676,0.824 -1.014,1.998 -1.014,3.526l0,11.155c0,0.337 -0.106,0.588 -0.319,0.752c-0.212,0.164 -0.444,0.245 -0.694,0.245c-0.252,0 -0.48,-0.081 -0.687,-0.245c-0.208,-0.164 -0.312,-0.415 -0.312,-0.752l0,-11.155c0,-0.927 0.123,-1.802 0.369,-2.625c0.245,-0.824 0.613,-1.543 1.104,-2.16c0.49,-0.616 1.101,-1.101 1.831,-1.456c0.731,-0.354 1.581,-0.531 2.552,-0.531c0.338,0 0.701,0.038 1.088,0.115c0.387,0.076 0.766,0.182 1.137,0.319c0.37,0.135 0.722,0.305 1.054,0.507c0.333,0.202 0.624,0.433 0.876,0.694c0.228,0.229 0.343,0.465 0.343,0.705" style="fill:#231f20;fill-rule:nonzero;"/><path d="M115.65,35.616c-0.212,0.164 -0.445,0.245 -0.695,0.245c-0.251,0 -0.48,-0.081 -0.687,-0.245c-0.207,-0.164 -0.31,-0.415 -0.31,-0.752l0,-12.071c0,-0.534 -0.102,-1.035 -0.303,-1.505c-0.202,-0.469 -0.478,-0.875 -0.826,-1.219c-0.349,-0.343 -0.758,-0.616 -1.227,-0.817c-0.469,-0.202 -0.971,-0.303 -1.505,-0.303c-0.534,0 -1.036,0.101 -1.505,0.303c-0.468,0.201 -0.875,0.474 -1.218,0.817c-0.344,0.344 -0.616,0.75 -0.818,1.219c-0.202,0.47 -0.302,0.971 -0.302,1.505l0,12.071c0,0.349 -0.106,0.607 -0.319,0.776c-0.213,0.169 -0.445,0.254 -0.696,0.254c-0.25,0 -0.48,-0.085 -0.687,-0.254c-0.207,-0.169 -0.31,-0.427 -0.31,-0.776l0,-12.071c0,-0.534 -0.101,-1.035 -0.303,-1.505c-0.202,-0.469 -0.477,-0.875 -0.826,-1.219c-0.349,-0.343 -0.757,-0.616 -1.227,-0.817c-0.468,-0.202 -0.97,-0.303 -1.504,-0.303c-0.535,0 -1.036,0.101 -1.505,0.303c-0.469,0.201 -0.875,0.474 -1.219,0.817c-0.343,0.344 -0.616,0.75 -0.818,1.219c-0.201,0.47 -0.302,0.971 -0.302,1.505l0,12.071c0,0.337 -0.106,0.588 -0.319,0.752c-0.213,0.164 -0.444,0.245 -0.695,0.245c-0.251,0 -0.48,-0.081 -0.687,-0.245c-0.208,-0.164 -0.311,-0.415 -0.311,-0.752l0,-12.071c0,-0.807 0.153,-1.568 0.458,-2.281c0.306,-0.715 0.722,-1.336 1.251,-1.865c0.529,-0.529 1.151,-0.946 1.865,-1.252c0.714,-0.304 1.475,-0.458 2.282,-0.458c1.014,0 1.946,0.236 2.797,0.703c0.85,0.469 1.537,1.096 2.06,1.882c0.524,-0.786 1.211,-1.413 2.061,-1.882c0.851,-0.467 1.783,-0.703 2.797,-0.703c0.818,0 1.581,0.154 2.29,0.458c0.708,0.306 1.33,0.723 1.865,1.252c0.534,0.529 0.953,1.15 1.259,1.865c0.305,0.713 0.458,1.474 0.458,2.281l0,12.071c0,0.337 -0.106,0.588 -0.319,0.752" style="fill:#231f20;fill-rule:nonzero;"/><path d="M129.12,26.26l-4.318,0.981c-0.578,0.131 -1.104,0.309 -1.578,0.533c-0.475,0.222 -0.878,0.485 -1.21,0.785c-0.333,0.3 -0.59,0.636 -0.769,1.006c-0.181,0.371 -0.27,0.768 -0.27,1.194c0,0.523 0.098,0.995 0.294,1.414c0.197,0.42 0.472,0.776 0.826,1.072c0.354,0.294 0.78,0.524 1.276,0.686c0.496,0.164 1.049,0.245 1.66,0.245c0.589,0 1.131,-0.092 1.628,-0.277c0.496,-0.186 0.926,-0.448 1.292,-0.785c0.365,-0.337 0.651,-0.736 0.858,-1.194c0.207,-0.459 0.311,-0.96 0.311,-1.505l0,-4.155Zm1.521,6.526c-0.327,0.709 -0.769,1.315 -1.325,1.817c-0.556,0.501 -1.199,0.891 -1.93,1.169c-0.73,0.277 -1.505,0.417 -2.322,0.417c-0.797,0 -1.562,-0.115 -2.298,-0.344c-0.736,-0.229 -1.385,-0.569 -1.947,-1.022c-0.561,-0.453 -1.012,-1.014 -1.349,-1.684c-0.338,-0.671 -0.507,-1.448 -0.507,-2.331c0,-0.84 0.163,-1.576 0.49,-2.208c0.328,-0.633 0.761,-1.178 1.301,-1.636c0.539,-0.458 1.163,-0.835 1.873,-1.128c0.708,-0.295 1.444,-0.524 2.207,-0.688c0.502,-0.109 1.009,-0.218 1.522,-0.326c0.435,-0.087 0.902,-0.186 1.398,-0.295c0.496,-0.11 0.951,-0.207 1.366,-0.294l0,-1.538c0,-0.556 -0.082,-1.066 -0.246,-1.529c-0.163,-0.464 -0.408,-0.859 -0.735,-1.186c-0.328,-0.326 -0.742,-0.58 -1.244,-0.761c-0.501,-0.18 -1.09,-0.27 -1.766,-0.27c-0.534,0 -0.987,0.049 -1.358,0.148c-0.371,0.098 -0.687,0.224 -0.948,0.376c-0.262,0.153 -0.482,0.313 -0.663,0.482c-0.18,0.169 -0.34,0.33 -0.482,0.483c-0.142,0.152 -0.276,0.278 -0.401,0.376c-0.125,0.098 -0.27,0.147 -0.433,0.147c-0.251,0 -0.486,-0.093 -0.703,-0.278c-0.219,-0.185 -0.328,-0.419 -0.328,-0.703c0,-0.186 0.046,-0.36 0.14,-0.524c0.092,-0.163 0.198,-0.31 0.318,-0.441c0.295,-0.37 0.63,-0.688 1.006,-0.948c0.377,-0.262 0.774,-0.478 1.194,-0.646c0.42,-0.17 0.856,-0.293 1.309,-0.368c0.452,-0.077 0.902,-0.115 1.349,-0.115c0.949,0 1.793,0.141 2.535,0.425c0.741,0.284 1.371,0.682 1.889,1.194c0.518,0.513 0.911,1.12 1.178,1.824c0.267,0.703 0.401,1.475 0.401,2.314l0,7.736c0,0.862 -0.164,1.646 -0.491,2.355" style="fill:#231f20;fill-rule:nonzero;"/><path d="M145.771,33.539c0,0.152 -0.052,0.291 -0.155,0.417c-0.104,0.125 -0.199,0.242 -0.287,0.352c-0.621,0.65 -1.363,1.127 -2.224,1.428c-0.861,0.302 -1.739,0.452 -2.633,0.452c-0.884,0 -1.693,-0.13 -2.429,-0.392c-0.736,-0.262 -1.369,-0.63 -1.897,-1.105c-0.529,-0.473 -0.938,-1.043 -1.227,-1.709c-0.289,-0.665 -0.433,-1.4 -0.433,-2.207l0,-7.737c0,-0.817 0.144,-1.559 0.433,-2.225c0.289,-0.664 0.698,-1.234 1.227,-1.709c0.528,-0.473 1.161,-0.841 1.897,-1.103c0.736,-0.262 1.545,-0.394 2.429,-0.394c0.436,0 0.897,0.047 1.382,0.14c0.485,0.093 0.962,0.231 1.431,0.418c0.469,0.185 0.91,0.421 1.325,0.711c0.414,0.289 0.769,0.635 1.063,1.038c0.066,0.131 0.098,0.257 0.098,0.377c0,0.185 -0.071,0.344 -0.212,0.475c-0.142,0.129 -0.306,0.195 -0.491,0.195c-0.186,0 -0.324,-0.06 -0.418,-0.18c-0.092,-0.12 -0.188,-0.24 -0.285,-0.359c-0.502,-0.513 -1.099,-0.886 -1.791,-1.121c-0.693,-0.235 -1.394,-0.352 -2.102,-0.352c-0.742,0 -1.399,0.101 -1.971,0.303c-0.572,0.202 -1.058,0.483 -1.456,0.844c-0.398,0.36 -0.701,0.791 -0.907,1.293c-0.208,0.503 -0.311,1.053 -0.311,1.653l0,7.745c0,0.589 0.103,1.135 0.311,1.638c0.206,0.501 0.509,0.935 0.907,1.301c0.398,0.366 0.884,0.649 1.456,0.851c0.572,0.202 1.229,0.304 1.971,0.304c0.338,0 0.7,-0.036 1.088,-0.108c0.387,-0.07 0.766,-0.173 1.136,-0.31c0.371,-0.137 0.717,-0.313 1.039,-0.532c0.322,-0.218 0.586,-0.474 0.793,-0.768c0.087,-0.12 0.18,-0.199 0.278,-0.237c0.098,-0.038 0.196,-0.058 0.295,-0.058c0.174,0 0.329,0.066 0.466,0.196c0.136,0.131 0.204,0.289 0.204,0.475" style="fill:#231f20;fill-rule:nonzero;"/><path d="M159.838,23.813c0,-0.666 -0.128,-1.297 -0.384,-1.892c-0.257,-0.594 -0.603,-1.11 -1.039,-1.546c-0.436,-0.438 -0.952,-0.784 -1.545,-1.041c-0.595,-0.255 -1.225,-0.384 -1.89,-0.384c-0.676,0 -1.308,0.129 -1.897,0.384c-0.588,0.257 -1.101,0.603 -1.537,1.041c-0.437,0.436 -0.783,0.952 -1.039,1.546c-0.256,0.595 -0.384,1.226 -0.384,1.892l0,6.204c0,0.667 0.128,1.294 0.384,1.884c0.256,0.589 0.602,1.105 1.039,1.547c0.436,0.442 0.949,0.792 1.537,1.048c0.589,0.256 1.221,0.385 1.897,0.385c0.665,0 1.295,-0.129 1.89,-0.385c0.593,-0.256 1.109,-0.606 1.545,-1.048c0.436,-0.442 0.782,-0.958 1.039,-1.547c0.256,-0.59 0.384,-1.217 0.384,-1.884l0,-6.204Zm0.851,8.598c-0.328,0.753 -0.771,1.406 -1.333,1.963c-0.562,0.555 -1.219,0.998 -1.971,1.324c-0.753,0.328 -1.554,0.491 -2.405,0.491c-0.85,0 -1.652,-0.163 -2.404,-0.491c-0.753,-0.326 -1.409,-0.769 -1.971,-1.324c-0.561,-0.557 -1.006,-1.21 -1.332,-1.963c-0.328,-0.752 -0.491,-1.554 -0.491,-2.405l0,-6.199c0,-0.849 0.163,-1.651 0.491,-2.404c0.326,-0.752 0.771,-1.409 1.332,-1.971c0.562,-0.561 1.218,-1.006 1.971,-1.333c0.752,-0.327 1.554,-0.491 2.404,-0.491c0.851,0 1.652,0.164 2.405,0.491c0.752,0.327 1.409,0.772 1.971,1.333c0.562,0.562 1.005,1.219 1.333,1.971c0.327,0.753 0.49,1.555 0.49,2.404l0,6.199c0,0.851 -0.163,1.653 -0.49,2.405" style="fill:#231f20;fill-rule:nonzero;"/><path d="M174.216,19.62c0,0.186 -0.071,0.343 -0.212,0.474c-0.142,0.13 -0.306,0.197 -0.492,0.197c-0.152,0 -0.272,-0.041 -0.359,-0.123c-0.088,-0.082 -0.191,-0.166 -0.311,-0.254c-0.382,-0.305 -0.815,-0.542 -1.3,-0.712c-0.486,-0.168 -0.979,-0.253 -1.481,-0.253c-0.664,0 -1.257,0.117 -1.774,0.352c-0.518,0.235 -0.957,0.573 -1.317,1.013c-0.359,0.443 -0.632,0.977 -0.818,1.603c-0.185,0.628 -0.277,1.334 -0.277,2.119l0,11.154c0,0.219 -0.072,0.385 -0.213,0.499c-0.142,0.115 -0.295,0.172 -0.458,0.172c-0.175,0 -0.33,-0.057 -0.467,-0.172c-0.136,-0.114 -0.204,-0.28 -0.204,-0.499l0,-11.154c0,-0.895 0.117,-1.731 0.352,-2.511c0.234,-0.779 0.583,-1.461 1.047,-2.045c0.463,-0.583 1.038,-1.041 1.725,-1.374c0.687,-0.332 1.489,-0.499 2.404,-0.499c0.328,0 0.671,0.036 1.031,0.107c0.36,0.072 0.714,0.173 1.063,0.303c0.349,0.131 0.681,0.291 0.998,0.483c0.316,0.19 0.589,0.406 0.818,0.645c0.163,0.153 0.245,0.311 0.245,0.475" style="fill:#231f20;fill-rule:nonzero;"/><path d="M187.285,23.813c0,-0.666 -0.128,-1.297 -0.385,-1.892c-0.256,-0.594 -0.602,-1.11 -1.038,-1.546c-0.436,-0.438 -0.952,-0.784 -1.546,-1.041c-0.594,-0.255 -1.224,-0.384 -1.889,-0.384c-0.676,0 -1.308,0.129 -1.897,0.384c-0.589,0.257 -1.101,0.603 -1.537,1.041c-0.437,0.436 -0.784,0.952 -1.039,1.546c-0.256,0.595 -0.385,1.226 -0.385,1.892l0,6.204c0,0.667 0.129,1.294 0.385,1.884c0.255,0.589 0.602,1.105 1.039,1.547c0.436,0.442 0.948,0.792 1.537,1.048c0.589,0.256 1.221,0.385 1.897,0.385c0.665,0 1.295,-0.129 1.889,-0.385c0.594,-0.256 1.11,-0.606 1.546,-1.048c0.436,-0.442 0.782,-0.958 1.038,-1.547c0.257,-0.59 0.385,-1.217 0.385,-1.884l0,-6.204Zm0.85,8.598c-0.327,0.753 -0.771,1.406 -1.332,1.963c-0.562,0.555 -1.22,0.998 -1.972,1.324c-0.752,0.328 -1.553,0.491 -2.404,0.491c-0.993,0 -1.909,-0.21 -2.747,-0.63c-0.841,-0.419 -1.544,-0.989 -2.111,-1.709l0,8.047c0,0.218 -0.071,0.385 -0.213,0.499c-0.141,0.114 -0.294,0.172 -0.457,0.172c-0.175,0 -0.33,-0.058 -0.467,-0.172c-0.136,-0.114 -0.204,-0.281 -0.204,-0.499l0,-18.09c0,-0.849 0.164,-1.651 0.491,-2.404c0.327,-0.752 0.771,-1.409 1.333,-1.971c0.561,-0.561 1.218,-1.006 1.97,-1.333c0.753,-0.327 1.555,-0.491 2.405,-0.491c0.851,0 1.652,0.164 2.404,0.491c0.752,0.327 1.41,0.772 1.972,1.333c0.561,0.562 1.005,1.219 1.332,1.971c0.327,0.753 0.491,1.555 0.491,2.404l0,6.199c0,0.851 -0.164,1.653 -0.491,2.405" style="fill:#231f20;fill-rule:nonzero;"/><path d="M203.036,23.813c0,-0.666 -0.128,-1.297 -0.385,-1.892c-0.256,-0.594 -0.602,-1.11 -1.038,-1.546c-0.436,-0.438 -0.952,-0.784 -1.546,-1.041c-0.594,-0.255 -1.224,-0.384 -1.889,-0.384c-0.676,0 -1.308,0.129 -1.897,0.384c-0.589,0.257 -1.101,0.603 -1.537,1.041c-0.437,0.436 -0.783,0.952 -1.039,1.546c-0.256,0.595 -0.384,1.226 -0.384,1.892l0,6.204c0,0.667 0.128,1.294 0.384,1.884c0.256,0.589 0.602,1.105 1.039,1.547c0.436,0.442 0.948,0.792 1.537,1.048c0.589,0.256 1.221,0.385 1.897,0.385c0.665,0 1.295,-0.129 1.889,-0.385c0.594,-0.256 1.11,-0.606 1.546,-1.048c0.436,-0.442 0.782,-0.958 1.038,-1.547c0.257,-0.59 0.385,-1.217 0.385,-1.884l0,-6.204Zm0.85,8.598c-0.327,0.753 -0.771,1.406 -1.332,1.963c-0.562,0.555 -1.22,0.998 -1.971,1.324c-0.753,0.328 -1.554,0.491 -2.405,0.491c-0.85,0 -1.652,-0.163 -2.404,-0.491c-0.753,-0.326 -1.409,-0.769 -1.971,-1.324c-0.562,-0.557 -1.006,-1.21 -1.333,-1.963c-0.327,-0.752 -0.491,-1.554 -0.491,-2.405l0,-6.199c0,-0.849 0.164,-1.651 0.491,-2.404c0.327,-0.752 0.771,-1.409 1.333,-1.971c0.562,-0.561 1.218,-1.006 1.971,-1.333c0.752,-0.327 1.554,-0.491 2.404,-0.491c0.851,0 1.652,0.164 2.405,0.491c0.751,0.327 1.409,0.772 1.971,1.333c0.561,0.562 1.005,1.219 1.332,1.971c0.328,0.753 0.491,1.555 0.491,2.404l0,6.199c0,0.851 -0.163,1.653 -0.491,2.405" style="fill:#231f20;fill-rule:nonzero;"/><path d="M217.414,19.62c0,0.186 -0.071,0.343 -0.212,0.474c-0.142,0.13 -0.307,0.197 -0.492,0.197c-0.152,0 -0.272,-0.041 -0.359,-0.123c-0.088,-0.082 -0.191,-0.166 -0.312,-0.254c-0.381,-0.305 -0.814,-0.542 -1.3,-0.712c-0.485,-0.168 -0.978,-0.253 -1.48,-0.253c-0.665,0 -1.257,0.117 -1.774,0.352c-0.518,0.235 -0.957,0.573 -1.317,1.013c-0.36,0.443 -0.632,0.977 -0.818,1.603c-0.186,0.628 -0.278,1.334 -0.278,2.119l0,11.154c0,0.219 -0.071,0.385 -0.213,0.499c-0.142,0.115 -0.294,0.172 -0.457,0.172c-0.175,0 -0.33,-0.057 -0.467,-0.172c-0.136,-0.114 -0.204,-0.28 -0.204,-0.499l0,-11.154c0,-0.895 0.117,-1.731 0.352,-2.511c0.234,-0.779 0.583,-1.461 1.046,-2.045c0.464,-0.583 1.039,-1.041 1.726,-1.374c0.687,-0.332 1.488,-0.499 2.404,-0.499c0.327,0 0.671,0.036 1.031,0.107c0.36,0.072 0.714,0.173 1.062,0.303c0.35,0.131 0.682,0.291 0.999,0.483c0.316,0.19 0.589,0.406 0.817,0.645c0.163,0.153 0.246,0.311 0.246,0.475" style="fill:#231f20;fill-rule:nonzero;"/><path d="M230.483,23.807c0,-0.665 -0.128,-1.294 -0.384,-1.89c-0.257,-0.593 -0.603,-1.109 -1.039,-1.545c-0.436,-0.435 -0.952,-0.782 -1.546,-1.039c-0.594,-0.255 -1.224,-0.383 -1.889,-0.383c-0.676,0 -1.308,0.128 -1.897,0.383c-0.589,0.257 -1.101,0.604 -1.537,1.039c-0.437,0.436 -0.783,0.952 -1.039,1.545c-0.256,0.596 -0.384,1.225 -0.384,1.89l0,1.669l9.715,0l0,-1.669Zm1.145,2.813c-0.131,0.131 -0.289,0.197 -0.475,0.197l-10.385,0l0,3.196c0,0.655 0.141,1.278 0.425,1.868c0.283,0.59 0.662,1.107 1.137,1.549c0.474,0.442 1.025,0.795 1.652,1.057c0.626,0.262 1.283,0.394 1.97,0.394c0.338,0 0.701,-0.036 1.088,-0.107c0.387,-0.071 0.766,-0.174 1.137,-0.311c0.37,-0.136 0.716,-0.312 1.038,-0.532c0.322,-0.218 0.586,-0.474 0.794,-0.768c0.087,-0.12 0.18,-0.199 0.278,-0.237c0.098,-0.038 0.196,-0.057 0.294,-0.057c0.164,0 0.316,0.065 0.458,0.196c0.141,0.131 0.213,0.289 0.213,0.474c0,0.153 -0.052,0.291 -0.156,0.417c-0.104,0.125 -0.199,0.243 -0.286,0.352c-0.621,0.65 -1.363,1.127 -2.224,1.429c-0.862,0.301 -1.74,0.452 -2.634,0.452c-0.85,0 -1.668,-0.158 -2.453,-0.475c-0.786,-0.315 -1.48,-0.752 -2.086,-1.308c-0.605,-0.556 -1.087,-1.21 -1.447,-1.963c-0.359,-0.752 -0.539,-1.565 -0.539,-2.437l0,-6.199c0,-0.85 0.163,-1.651 0.49,-2.404c0.327,-0.752 0.772,-1.409 1.333,-1.971c0.562,-0.562 1.218,-1.006 1.971,-1.333c0.752,-0.327 1.554,-0.491 2.404,-0.491c0.851,0 1.652,0.164 2.405,0.491c0.752,0.327 1.409,0.771 1.971,1.333c0.561,0.562 1.005,1.219 1.333,1.971c0.327,0.753 0.49,1.554 0.49,2.404l0,2.339c0,0.186 -0.066,0.344 -0.196,0.474" style="fill:#231f20;fill-rule:nonzero;"/></svg>