<?xml version="1.0" encoding="UTF-8" standalone="no"?><!DOCTYPE svg PUBLIC "-//W3C//DTD SVG 1.1//EN" "http://www.w3.org/Graphics/SVG/1.1/DTD/svg11.dtd"><svg width="100%" height="100%" viewBox="0 0 234 144" version="1.1" xmlns="http://www.w3.org/2000/svg" xmlns:xlink="http://www.w3.org/1999/xlink" xml:space="preserve" xmlns:serif="http://www.serif.com/" style="fill-rule:evenodd;clip-rule:evenodd;stroke-linejoin:round;stroke-miterlimit:2;"><path d="M41.086,139.381c-0.083,0.067 -0.172,0.101 -0.269,0.101c-0.101,0 -0.193,-0.034 -0.272,-0.101c-0.08,-0.067 -0.12,-0.165 -0.12,-0.292l0,-6.668c0,-0.389 -0.075,-0.758 -0.225,-1.106c-0.15,-0.348 -0.353,-0.65 -0.608,-0.906c-0.256,-0.255 -0.558,-0.458 -0.905,-0.608c-0.349,-0.15 -0.718,-0.225 -1.107,-0.225c-0.396,0 -0.766,0.075 -1.111,0.225c-0.345,0.15 -0.646,0.353 -0.901,0.608c-0.255,0.256 -0.459,0.558 -0.608,0.906c-0.15,0.348 -0.226,0.717 -0.226,1.106l0,6.668c0,0.127 -0.041,0.225 -0.125,0.292c-0.083,0.067 -0.171,0.101 -0.267,0.101c-0.103,0 -0.193,-0.034 -0.274,-0.101c-0.079,-0.067 -0.119,-0.165 -0.119,-0.292l0,-6.668c0,-0.498 0.096,-0.967 0.287,-1.408c0.192,-0.441 0.453,-0.825 0.781,-1.154c0.329,-0.329 0.715,-0.589 1.155,-0.781c0.44,-0.192 0.91,-0.288 1.408,-0.288c0.498,0 0.967,0.096 1.408,0.288c0.441,0.192 0.826,0.452 1.155,0.781c0.328,0.329 0.589,0.713 0.78,1.154c0.192,0.441 0.288,0.91 0.288,1.408l0,6.668c0,0.127 -0.042,0.225 -0.125,0.292" style="fill:#fff;fill-rule:nonzero;"/><path d="M50.15,137.46c-0.192,0.44 -0.452,0.824 -0.781,1.15c-0.329,0.325 -0.714,0.584 -1.155,0.776c-0.44,0.191 -0.91,0.287 -1.408,0.287c-0.498,0 -0.968,-0.096 -1.408,-0.287c-0.44,-0.192 -0.825,-0.451 -1.154,-0.776c-0.329,-0.326 -0.59,-0.71 -0.781,-1.15c-0.192,-0.441 -0.288,-0.91 -0.288,-1.408l0,-6.677c0,-0.128 0.04,-0.226 0.12,-0.292c0.08,-0.067 0.17,-0.101 0.273,-0.101c0.096,0 0.186,0.034 0.269,0.101c0.083,0.066 0.124,0.165 0.124,0.293l0,6.683c0,0.39 0.075,0.757 0.225,1.103c0.151,0.344 0.353,0.647 0.609,0.906c0.254,0.259 0.555,0.463 0.9,0.613c0.345,0.151 0.715,0.226 1.111,0.226c0.39,0 0.758,-0.075 1.107,-0.226c0.347,-0.15 0.649,-0.354 0.905,-0.613c0.255,-0.259 0.458,-0.562 0.608,-0.906c0.151,-0.346 0.225,-0.713 0.225,-1.103l0,-6.683c0,-0.128 0.04,-0.227 0.12,-0.293c0.08,-0.067 0.171,-0.101 0.274,-0.101c0.095,0 0.184,0.034 0.267,0.101c0.083,0.066 0.125,0.164 0.125,0.292l0,6.677c0,0.498 -0.096,0.967 -0.287,1.408" style="fill:#fff;fill-rule:nonzero;"/><path d="M59.049,138.61c0,0.089 -0.035,0.166 -0.105,0.229c-0.071,0.064 -0.141,0.125 -0.211,0.181c-0.288,0.202 -0.598,0.361 -0.929,0.478c-0.332,0.117 -0.674,0.175 -1.026,0.175c-0.409,0 -0.784,-0.065 -1.125,-0.196c-0.342,-0.131 -0.636,-0.312 -0.881,-0.542c-0.246,-0.229 -0.438,-0.501 -0.576,-0.814c-0.137,-0.313 -0.206,-0.651 -0.206,-1.015l0,-7.339l-1.982,0c-0.128,0 -0.226,-0.039 -0.292,-0.119c-0.067,-0.08 -0.102,-0.171 -0.102,-0.273c0,-0.096 0.035,-0.185 0.102,-0.268c0.066,-0.083 0.164,-0.125 0.292,-0.125l1.982,0l0,-2.289c0,-0.128 0.04,-0.226 0.121,-0.293c0.08,-0.067 0.17,-0.101 0.272,-0.101c0.096,0 0.186,0.034 0.269,0.101c0.083,0.067 0.125,0.165 0.125,0.293l0,2.289l3.668,0c0.128,0 0.225,0.042 0.292,0.125c0.068,0.083 0.101,0.172 0.101,0.268c0,0.102 -0.033,0.193 -0.101,0.273c-0.067,0.08 -0.164,0.119 -0.292,0.119l-3.668,0l0,7.346c0,0.249 0.045,0.483 0.138,0.701c0.093,0.217 0.225,0.407 0.398,0.57c0.173,0.163 0.383,0.291 0.632,0.384c0.249,0.092 0.527,0.139 0.833,0.139c0.134,0 0.273,-0.015 0.417,-0.043c0.144,-0.029 0.286,-0.07 0.426,-0.125c0.141,-0.054 0.275,-0.118 0.403,-0.191c0.128,-0.074 0.239,-0.159 0.335,-0.254c0.051,-0.038 0.097,-0.064 0.139,-0.077c0.041,-0.013 0.088,-0.019 0.139,-0.019c0.108,0 0.204,0.041 0.287,0.124c0.083,0.083 0.125,0.179 0.125,0.288" style="fill:#fff;fill-rule:nonzero;"/><path d="M66.1,129.969c0,0.109 -0.041,0.201 -0.124,0.278c-0.083,0.076 -0.179,0.115 -0.287,0.115c-0.09,0 -0.16,-0.024 -0.211,-0.072c-0.052,-0.048 -0.112,-0.097 -0.182,-0.149c-0.223,-0.178 -0.477,-0.318 -0.762,-0.417c-0.285,-0.098 -0.574,-0.148 -0.867,-0.148c-0.389,0 -0.736,0.069 -1.04,0.206c-0.302,0.138 -0.56,0.335 -0.77,0.594c-0.211,0.259 -0.37,0.572 -0.48,0.939c-0.108,0.367 -0.162,0.78 -0.162,1.24l0,6.534c0,0.128 -0.042,0.225 -0.125,0.292c-0.083,0.067 -0.173,0.101 -0.268,0.101c-0.103,0 -0.194,-0.034 -0.273,-0.101c-0.08,-0.067 -0.12,-0.164 -0.12,-0.292l0,-6.534c0,-0.523 0.068,-1.013 0.206,-1.47c0.138,-0.457 0.342,-0.856 0.613,-1.198c0.272,-0.341 0.609,-0.609 1.011,-0.804c0.403,-0.195 0.871,-0.293 1.408,-0.293c0.192,0 0.393,0.021 0.604,0.063c0.211,0.041 0.418,0.1 0.622,0.177c0.205,0.077 0.399,0.171 0.585,0.283c0.185,0.112 0.345,0.238 0.478,0.378c0.096,0.09 0.144,0.182 0.144,0.278" style="fill:#fff;fill-rule:nonzero;"/><path d="M68.136,139.381c-0.08,0.067 -0.171,0.101 -0.272,0.101c-0.096,0 -0.186,-0.034 -0.269,-0.101c-0.083,-0.067 -0.125,-0.165 -0.125,-0.292l0,-9.714c0,-0.128 0.042,-0.225 0.125,-0.292c0.083,-0.067 0.173,-0.101 0.269,-0.101c0.101,0 0.192,0.034 0.272,0.101c0.08,0.067 0.12,0.164 0.12,0.292l0,9.714c0,0.127 -0.04,0.225 -0.12,0.292m0,-12.559c-0.08,0.067 -0.171,0.1 -0.272,0.1c-0.096,0 -0.186,-0.033 -0.269,-0.1c-0.083,-0.067 -0.125,-0.165 -0.125,-0.293l0,-1.57c0,-0.128 0.042,-0.224 0.125,-0.288c0.083,-0.064 0.173,-0.096 0.269,-0.096c0.101,0 0.192,0.032 0.272,0.096c0.08,0.064 0.12,0.16 0.12,0.288l0,1.57c0,0.128 -0.04,0.226 -0.12,0.293" style="fill:#fff;fill-rule:nonzero;"/><path d="M77.031,138.121c0,0.09 -0.03,0.171 -0.091,0.244c-0.061,0.074 -0.117,0.143 -0.168,0.206c-0.364,0.382 -0.798,0.66 -1.303,0.837c-0.504,0.176 -1.018,0.265 -1.542,0.265l-0.039,0l-0.249,0.747c0.269,0.109 0.486,0.283 0.652,0.522c0.167,0.24 0.25,0.513 0.25,0.819c0,0.192 -0.039,0.375 -0.115,0.551c-0.078,0.176 -0.181,0.328 -0.312,0.455c-0.131,0.128 -0.283,0.23 -0.455,0.307c-0.173,0.076 -0.358,0.114 -0.556,0.114c-0.128,0 -0.224,-0.043 -0.292,-0.129c-0.067,-0.086 -0.1,-0.174 -0.1,-0.263c0,-0.09 0.033,-0.177 0.1,-0.263c0.068,-0.087 0.164,-0.13 0.292,-0.13c0.179,0 0.332,-0.064 0.46,-0.192c0.127,-0.128 0.192,-0.277 0.192,-0.45c0,-0.179 -0.065,-0.328 -0.192,-0.45c-0.128,-0.122 -0.281,-0.182 -0.46,-0.182c-0.057,0 -0.113,-0.014 -0.168,-0.043c-0.053,-0.029 -0.1,-0.066 -0.138,-0.111c-0.038,-0.044 -0.064,-0.095 -0.077,-0.152c-0.012,-0.058 -0.006,-0.119 0.019,-0.182l0.346,-1.045c-0.403,-0.07 -0.769,-0.195 -1.098,-0.373c-0.329,-0.179 -0.608,-0.403 -0.838,-0.671c-0.23,-0.268 -0.409,-0.575 -0.537,-0.92c-0.127,-0.344 -0.191,-0.721 -0.191,-1.13l0,-4.531c0,-0.479 0.085,-0.913 0.254,-1.303c0.169,-0.389 0.409,-0.723 0.718,-1.001c0.31,-0.278 0.68,-0.494 1.112,-0.647c0.43,-0.153 0.905,-0.23 1.422,-0.23c0.255,0 0.526,0.027 0.81,0.082c0.283,0.054 0.563,0.136 0.838,0.244c0.274,0.109 0.533,0.248 0.776,0.417c0.243,0.169 0.451,0.372 0.622,0.608c0.038,0.077 0.058,0.15 0.058,0.22c0,0.109 -0.042,0.201 -0.124,0.278c-0.084,0.077 -0.18,0.115 -0.288,0.115c-0.109,0 -0.19,-0.035 -0.244,-0.105c-0.054,-0.07 -0.111,-0.141 -0.168,-0.211c-0.293,-0.3 -0.644,-0.519 -1.049,-0.656c-0.405,-0.138 -0.815,-0.206 -1.231,-0.206c-0.434,0 -0.819,0.059 -1.154,0.177c-0.336,0.118 -0.62,0.283 -0.853,0.494c-0.233,0.211 -0.41,0.464 -0.532,0.757c-0.121,0.295 -0.181,0.617 -0.181,0.969l0,4.536c0,0.345 0.06,0.665 0.181,0.959c0.122,0.294 0.299,0.549 0.532,0.762c0.233,0.215 0.517,0.381 0.853,0.499c0.335,0.118 0.72,0.178 1.154,0.178c0.198,0 0.411,-0.021 0.637,-0.063c0.227,-0.041 0.448,-0.102 0.666,-0.181c0.217,-0.081 0.42,-0.185 0.609,-0.312c0.188,-0.127 0.342,-0.278 0.464,-0.451c0.051,-0.07 0.105,-0.116 0.163,-0.138c0.057,-0.023 0.115,-0.034 0.172,-0.034c0.102,0 0.193,0.039 0.273,0.115c0.08,0.077 0.12,0.17 0.12,0.278" style="fill:#fff;fill-rule:nonzero;"/><path d="M84.447,126.529c0,0.02 -0.003,0.039 -0.01,0.058c-0.006,0.019 -0.01,0.035 -0.01,0.047c-0.133,0.326 -0.328,0.593 -0.584,0.8c-0.255,0.208 -0.571,0.312 -0.948,0.312c-0.211,0 -0.385,-0.041 -0.522,-0.121c-0.138,-0.081 -0.264,-0.17 -0.378,-0.267c-0.115,-0.097 -0.229,-0.186 -0.34,-0.267c-0.112,-0.081 -0.248,-0.121 -0.407,-0.121c-0.173,0 -0.309,0.043 -0.407,0.131c-0.1,0.087 -0.184,0.182 -0.254,0.285c-0.071,0.104 -0.138,0.199 -0.202,0.287c-0.064,0.087 -0.153,0.13 -0.268,0.13c-0.103,0 -0.196,-0.035 -0.282,-0.105c-0.086,-0.07 -0.13,-0.166 -0.13,-0.288c0,-0.038 0.007,-0.071 0.019,-0.1c0.013,-0.029 0.026,-0.059 0.038,-0.091c0.064,-0.134 0.149,-0.262 0.254,-0.383c0.106,-0.121 0.222,-0.228 0.35,-0.321c0.128,-0.093 0.267,-0.168 0.417,-0.225c0.15,-0.057 0.305,-0.087 0.465,-0.087c0.223,0 0.408,0.04 0.555,0.118c0.147,0.08 0.278,0.165 0.393,0.256c0.114,0.092 0.225,0.177 0.33,0.256c0.106,0.078 0.229,0.118 0.369,0.118c0.154,0 0.28,-0.027 0.379,-0.081c0.099,-0.053 0.18,-0.115 0.244,-0.185c0.07,-0.075 0.124,-0.167 0.162,-0.274c0.02,-0.089 0.064,-0.156 0.135,-0.203c0.07,-0.048 0.144,-0.072 0.22,-0.072c0.09,0 0.181,0.034 0.273,0.101c0.093,0.067 0.139,0.165 0.139,0.292m-0.096,7.31l-2.788,0.632c-0.345,0.077 -0.662,0.182 -0.953,0.316c-0.29,0.134 -0.541,0.294 -0.752,0.479c-0.21,0.185 -0.375,0.399 -0.493,0.642c-0.118,0.243 -0.177,0.508 -0.177,0.795c0,0.338 0.064,0.643 0.192,0.915c0.128,0.271 0.306,0.503 0.536,0.694c0.229,0.192 0.505,0.339 0.824,0.441c0.319,0.102 0.667,0.153 1.044,0.153c0.364,0 0.702,-0.059 1.016,-0.177c0.312,-0.118 0.584,-0.284 0.814,-0.498c0.229,-0.214 0.41,-0.468 0.541,-0.762c0.131,-0.293 0.196,-0.613 0.196,-0.958l0,-2.672Zm0.518,3.951c-0.179,0.386 -0.422,0.72 -0.729,1.001c-0.306,0.281 -0.662,0.499 -1.067,0.652c-0.406,0.153 -0.836,0.23 -1.289,0.23c-0.447,0 -0.875,-0.066 -1.284,-0.197c-0.408,-0.131 -0.768,-0.322 -1.077,-0.574c-0.31,-0.253 -0.558,-0.564 -0.743,-0.935c-0.185,-0.37 -0.278,-0.795 -0.278,-1.273c0,-0.435 0.083,-0.821 0.249,-1.16c0.166,-0.338 0.389,-0.632 0.666,-0.881c0.278,-0.249 0.6,-0.455 0.968,-0.618c0.367,-0.163 0.755,-0.289 1.164,-0.379l2.902,-0.631l0,-1.055c0,-0.357 -0.052,-0.683 -0.158,-0.977c-0.105,-0.293 -0.264,-0.546 -0.475,-0.756c-0.209,-0.211 -0.473,-0.374 -0.79,-0.489c-0.316,-0.115 -0.684,-0.173 -1.106,-0.173c-0.46,0 -0.828,0.061 -1.106,0.183c-0.278,0.121 -0.505,0.257 -0.68,0.407c-0.176,0.15 -0.317,0.285 -0.422,0.407c-0.105,0.121 -0.212,0.182 -0.32,0.182c-0.103,0 -0.194,-0.035 -0.274,-0.105c-0.08,-0.071 -0.12,-0.16 -0.12,-0.268c0,-0.09 0.026,-0.173 0.077,-0.25c0.051,-0.077 0.102,-0.144 0.154,-0.201c0.344,-0.402 0.753,-0.693 1.225,-0.872c0.473,-0.178 0.962,-0.268 1.466,-0.268c0.53,0 1.001,0.078 1.413,0.235c0.412,0.156 0.759,0.375 1.039,0.656c0.281,0.281 0.495,0.616 0.643,1.006c0.146,0.389 0.22,0.818 0.22,1.283l0,4.532c0,0.472 -0.089,0.902 -0.268,1.288" style="fill:#fff;fill-rule:nonzero;"/><path d="M93.576,132.424c0,-0.39 -0.075,-0.76 -0.226,-1.108c-0.149,-0.348 -0.352,-0.65 -0.607,-0.906c-0.256,-0.256 -0.558,-0.459 -0.906,-0.609c-0.348,-0.15 -0.717,-0.226 -1.106,-0.226c-0.396,0 -0.767,0.076 -1.112,0.226c-0.344,0.15 -0.645,0.353 -0.9,0.609c-0.255,0.256 -0.458,0.558 -0.609,0.906c-0.149,0.348 -0.224,0.718 -0.224,1.108l0,3.634c0,0.39 0.075,0.758 0.224,1.103c0.151,0.345 0.354,0.647 0.609,0.907c0.255,0.258 0.556,0.463 0.9,0.613c0.345,0.15 0.716,0.225 1.112,0.225c0.389,0 0.758,-0.075 1.106,-0.225c0.348,-0.15 0.65,-0.355 0.906,-0.613c0.255,-0.26 0.458,-0.562 0.607,-0.907c0.151,-0.345 0.226,-0.713 0.226,-1.103l0,-3.634Zm0.498,5.036c-0.191,0.44 -0.452,0.823 -0.781,1.15c-0.328,0.325 -0.713,0.584 -1.154,0.775c-0.441,0.192 -0.91,0.288 -1.408,0.288c-0.499,0 -0.968,-0.096 -1.408,-0.288c-0.441,-0.191 -0.826,-0.45 -1.155,-0.775c-0.329,-0.327 -0.589,-0.71 -0.78,-1.15c-0.192,-0.441 -0.288,-0.911 -0.288,-1.409l0,-3.63c0,-0.498 0.096,-0.968 0.288,-1.409c0.191,-0.44 0.451,-0.825 0.78,-1.154c0.329,-0.329 0.714,-0.589 1.155,-0.781c0.44,-0.192 0.909,-0.287 1.408,-0.287c0.498,0 0.967,0.095 1.408,0.287c0.441,0.192 0.826,0.452 1.154,0.781c0.329,0.329 0.59,0.714 0.781,1.154c0.191,0.441 0.287,0.911 0.287,1.409l0,3.63c0,0.498 -0.096,0.968 -0.287,1.409" style="fill:#fff;fill-rule:nonzero;"/><path d="M97.697,137.518c0,0.37 -0.042,0.757 -0.125,1.159c-0.083,0.403 -0.206,0.794 -0.369,1.174c-0.163,0.379 -0.364,0.736 -0.604,1.068c-0.239,0.332 -0.511,0.613 -0.818,0.843c-0.077,0.051 -0.157,0.076 -0.24,0.076c-0.109,0 -0.201,-0.041 -0.278,-0.124c-0.077,-0.083 -0.115,-0.173 -0.115,-0.268c0,-0.058 0.011,-0.115 0.033,-0.173c0.023,-0.057 0.063,-0.105 0.12,-0.144c0.02,-0.012 0.042,-0.031 0.068,-0.057c0.018,-0.019 0.044,-0.041 0.076,-0.067c0.032,-0.026 0.064,-0.054 0.096,-0.086c0.454,-0.447 0.796,-0.966 1.025,-1.557c0.23,-0.591 0.345,-1.205 0.345,-1.844c0,-0.127 0.042,-0.225 0.125,-0.292c0.083,-0.067 0.172,-0.101 0.267,-0.101c0.103,0 0.194,0.034 0.274,0.101c0.08,0.067 0.12,0.165 0.12,0.292" style="fill:#fff;fill-rule:nonzero;"/><path d="M110.457,132.421c0,-0.389 -0.075,-0.758 -0.226,-1.106c-0.149,-0.348 -0.352,-0.65 -0.607,-0.906c-0.256,-0.255 -0.558,-0.458 -0.906,-0.608c-0.348,-0.15 -0.717,-0.225 -1.107,-0.225c-0.395,0 -0.766,0.075 -1.111,0.225c-0.345,0.15 -0.645,0.353 -0.9,0.608c-0.255,0.256 -0.458,0.558 -0.609,0.906c-0.149,0.348 -0.224,0.717 -0.224,1.106l0,0.977l5.69,0l0,-0.977Zm0.671,1.648c-0.077,0.077 -0.17,0.115 -0.278,0.115l-6.083,0l0,1.872c0,0.384 0.083,0.748 0.249,1.094c0.166,0.346 0.387,0.648 0.666,0.907c0.277,0.26 0.599,0.466 0.966,0.619c0.369,0.154 0.753,0.231 1.156,0.231c0.197,0 0.41,-0.021 0.636,-0.063c0.227,-0.041 0.449,-0.102 0.666,-0.181c0.217,-0.08 0.42,-0.184 0.609,-0.312c0.187,-0.127 0.343,-0.278 0.464,-0.451c0.051,-0.069 0.105,-0.116 0.163,-0.138c0.057,-0.023 0.115,-0.033 0.173,-0.033c0.095,0 0.184,0.038 0.267,0.114c0.083,0.077 0.125,0.17 0.125,0.278c0,0.09 -0.03,0.171 -0.091,0.244c-0.06,0.074 -0.117,0.143 -0.168,0.206c-0.364,0.382 -0.798,0.661 -1.302,0.837c-0.505,0.177 -1.019,0.265 -1.542,0.265c-0.499,0 -0.978,-0.093 -1.438,-0.278c-0.46,-0.185 -0.867,-0.44 -1.221,-0.766c-0.355,-0.326 -0.637,-0.709 -0.848,-1.15c-0.21,-0.44 -0.316,-0.916 -0.316,-1.427l0,-3.631c0,-0.498 0.096,-0.967 0.288,-1.408c0.191,-0.441 0.451,-0.825 0.78,-1.155c0.329,-0.328 0.714,-0.588 1.155,-0.78c0.44,-0.192 0.909,-0.288 1.407,-0.288c0.499,0 0.968,0.096 1.409,0.288c0.441,0.192 0.826,0.452 1.154,0.78c0.329,0.33 0.59,0.714 0.781,1.155c0.191,0.441 0.287,0.91 0.287,1.408l0,1.37c0,0.109 -0.038,0.201 -0.114,0.278" style="fill:#fff;fill-rule:nonzero;"/><path d="M119.482,132.424c0,-0.39 -0.075,-0.76 -0.226,-1.108c-0.149,-0.348 -0.352,-0.65 -0.608,-0.906c-0.255,-0.256 -0.557,-0.459 -0.904,-0.609c-0.349,-0.15 -0.718,-0.226 -1.107,-0.226c-0.396,0 -0.766,0.076 -1.111,0.226c-0.345,0.15 -0.646,0.353 -0.901,0.609c-0.255,0.256 -0.458,0.558 -0.608,0.906c-0.15,0.348 -0.225,0.718 -0.225,1.108l0,3.634c0,0.39 0.075,0.758 0.225,1.103c0.15,0.345 0.353,0.647 0.608,0.907c0.255,0.258 0.556,0.463 0.901,0.613c0.345,0.15 0.715,0.225 1.111,0.225c0.389,0 0.758,-0.075 1.107,-0.225c0.347,-0.15 0.649,-0.355 0.904,-0.613c0.256,-0.26 0.459,-0.562 0.608,-0.907c0.151,-0.345 0.226,-0.713 0.226,-1.103l0,-3.634Zm0.661,10.884c-0.083,0.067 -0.172,0.101 -0.268,0.101c-0.103,0 -0.194,-0.034 -0.273,-0.101c-0.08,-0.067 -0.12,-0.164 -0.12,-0.292l0,-4.713c-0.339,0.421 -0.752,0.755 -1.24,1.001c-0.489,0.245 -1.024,0.369 -1.605,0.369c-0.498,0 -0.968,-0.096 -1.409,-0.288c-0.44,-0.191 -0.825,-0.45 -1.154,-0.775c-0.328,-0.327 -0.589,-0.71 -0.78,-1.15c-0.192,-0.441 -0.288,-0.911 -0.288,-1.409l0,-3.63c0,-0.498 0.096,-0.968 0.288,-1.409c0.191,-0.44 0.452,-0.825 0.78,-1.154c0.329,-0.329 0.714,-0.589 1.154,-0.781c0.441,-0.192 0.911,-0.287 1.409,-0.287c0.498,0 0.967,0.095 1.408,0.287c0.441,0.192 0.826,0.452 1.155,0.781c0.328,0.329 0.589,0.714 0.78,1.154c0.192,0.441 0.288,0.911 0.288,1.409l0,10.595c0,0.128 -0.042,0.225 -0.125,0.292" style="fill:#fff;fill-rule:nonzero;"/><path d="M129.206,137.46c-0.192,0.44 -0.452,0.824 -0.781,1.15c-0.329,0.325 -0.714,0.584 -1.155,0.776c-0.44,0.191 -0.91,0.287 -1.408,0.287c-0.498,0 -0.968,-0.096 -1.408,-0.287c-0.44,-0.192 -0.826,-0.451 -1.154,-0.776c-0.329,-0.326 -0.59,-0.71 -0.781,-1.15c-0.192,-0.441 -0.288,-0.91 -0.288,-1.408l0,-6.677c0,-0.128 0.04,-0.226 0.121,-0.292c0.08,-0.067 0.17,-0.101 0.272,-0.101c0.096,0 0.186,0.034 0.269,0.101c0.083,0.066 0.124,0.165 0.124,0.293l0,6.683c0,0.39 0.075,0.757 0.225,1.103c0.15,0.344 0.353,0.647 0.608,0.906c0.255,0.259 0.556,0.463 0.901,0.613c0.345,0.151 0.715,0.226 1.111,0.226c0.39,0 0.758,-0.075 1.107,-0.226c0.347,-0.15 0.65,-0.354 0.905,-0.613c0.255,-0.259 0.458,-0.562 0.608,-0.906c0.151,-0.346 0.225,-0.713 0.225,-1.103l0,-6.683c0,-0.128 0.04,-0.227 0.12,-0.293c0.079,-0.067 0.17,-0.101 0.274,-0.101c0.095,0 0.184,0.034 0.267,0.101c0.083,0.066 0.125,0.164 0.125,0.292l0,6.677c0,0.498 -0.096,0.967 -0.287,1.408" style="fill:#fff;fill-rule:nonzero;"/><path d="M132.315,139.381c-0.08,0.067 -0.171,0.101 -0.272,0.101c-0.096,0 -0.186,-0.034 -0.269,-0.101c-0.083,-0.067 -0.124,-0.165 -0.124,-0.292l0,-9.714c0,-0.128 0.041,-0.225 0.124,-0.292c0.083,-0.067 0.173,-0.101 0.269,-0.101c0.101,0 0.192,0.034 0.272,0.101c0.08,0.067 0.12,0.164 0.12,0.292l0,9.714c0,0.127 -0.04,0.225 -0.12,0.292m0,-12.559c-0.08,0.067 -0.171,0.1 -0.272,0.1c-0.096,0 -0.186,-0.033 -0.269,-0.1c-0.083,-0.067 -0.124,-0.165 -0.124,-0.293l0,-1.57c0,-0.128 0.041,-0.224 0.124,-0.288c0.083,-0.064 0.173,-0.096 0.269,-0.096c0.101,0 0.192,0.032 0.272,0.096c0.08,0.064 0.12,0.16 0.12,0.288l0,1.57c0,0.128 -0.04,0.226 -0.12,0.293" style="fill:#fff;fill-rule:nonzero;"/><path d="M136.956,139.29c0,0.096 -0.035,0.184 -0.105,0.263c-0.07,0.08 -0.16,0.12 -0.268,0.12c-0.083,0 -0.165,-0.019 -0.244,-0.058c-0.08,-0.038 -0.149,-0.076 -0.206,-0.115c-0.243,-0.153 -0.449,-0.338 -0.618,-0.555c-0.169,-0.217 -0.309,-0.453 -0.417,-0.709c-0.109,-0.256 -0.187,-0.522 -0.235,-0.8c-0.048,-0.278 -0.072,-0.557 -0.072,-0.838l0,-11.64c0,-0.127 0.042,-0.223 0.125,-0.287c0.083,-0.064 0.173,-0.096 0.269,-0.096c0.101,0 0.192,0.032 0.272,0.096c0.08,0.064 0.12,0.16 0.12,0.287l0,11.64c0,0.198 0.02,0.413 0.057,0.647c0.039,0.233 0.102,0.459 0.192,0.68c0.089,0.22 0.206,0.42 0.35,0.598c0.143,0.179 0.317,0.31 0.522,0.393c0.172,0.077 0.258,0.201 0.258,0.374" style="fill:#fff;fill-rule:nonzero;"/><path d="M139.25,139.381c-0.081,0.067 -0.173,0.101 -0.276,0.101c-0.097,0 -0.186,-0.034 -0.267,-0.101c-0.081,-0.067 -0.121,-0.165 -0.121,-0.292l0,-9.714c0,-0.128 0.04,-0.225 0.121,-0.292c0.081,-0.067 0.17,-0.101 0.267,-0.101c0.103,0 0.195,0.034 0.276,0.101c0.081,0.067 0.121,0.164 0.121,0.292l0,9.714c0,0.127 -0.04,0.225 -0.121,0.292m1.232,-13.512c0,0.102 -0.05,0.204 -0.153,0.306l-2.137,1.715c-0.045,0.032 -0.088,0.053 -0.133,0.062c-0.044,0.01 -0.086,0.014 -0.124,0.014c-0.11,0 -0.202,-0.041 -0.279,-0.124c-0.076,-0.083 -0.115,-0.172 -0.115,-0.268c0,-0.128 0.052,-0.233 0.153,-0.316l2.147,-1.706c0.069,-0.051 0.146,-0.076 0.229,-0.076c0.11,0 0.205,0.04 0.287,0.12c0.084,0.08 0.125,0.171 0.125,0.273" style="fill:#fff;fill-rule:nonzero;"/><path d="M148.291,132.424c0,-0.39 -0.075,-0.76 -0.226,-1.108c-0.15,-0.348 -0.352,-0.65 -0.608,-0.906c-0.255,-0.256 -0.557,-0.459 -0.905,-0.609c-0.349,-0.15 -0.717,-0.226 -1.107,-0.226c-0.396,0 -0.766,0.076 -1.111,0.226c-0.345,0.15 -0.646,0.353 -0.9,0.609c-0.255,0.256 -0.459,0.558 -0.609,0.906c-0.15,0.348 -0.224,0.718 -0.224,1.108l0,3.634c0,0.39 0.074,0.758 0.224,1.103c0.15,0.345 0.354,0.647 0.609,0.907c0.254,0.258 0.555,0.463 0.9,0.613c0.345,0.15 0.715,0.225 1.111,0.225c0.39,0 0.758,-0.075 1.107,-0.225c0.348,-0.15 0.65,-0.355 0.905,-0.613c0.256,-0.26 0.458,-0.562 0.608,-0.907c0.151,-0.345 0.226,-0.713 0.226,-1.103l0,-3.634Zm0.498,5.036c-0.191,0.44 -0.452,0.823 -0.781,1.15c-0.329,0.325 -0.714,0.584 -1.154,0.775c-0.441,0.192 -0.911,0.288 -1.409,0.288c-0.498,0 -0.967,-0.096 -1.408,-0.288c-0.44,-0.191 -0.826,-0.45 -1.154,-0.775c-0.329,-0.327 -0.59,-0.71 -0.781,-1.15c-0.192,-0.441 -0.288,-0.911 -0.288,-1.409l0,-11.093c0,-0.128 0.041,-0.223 0.125,-0.287c0.082,-0.064 0.172,-0.096 0.268,-0.096c0.103,0 0.193,0.032 0.273,0.096c0.081,0.064 0.121,0.159 0.121,0.287l0,5.202c0.337,-0.422 0.751,-0.755 1.24,-1.001c0.488,-0.246 1.022,-0.369 1.604,-0.369c0.498,0 0.968,0.095 1.409,0.287c0.44,0.192 0.825,0.452 1.154,0.781c0.329,0.329 0.59,0.714 0.781,1.154c0.191,0.441 0.287,0.911 0.287,1.409l0,3.63c0,0.498 -0.096,0.968 -0.287,1.409" style="fill:#fff;fill-rule:nonzero;"/><path d="M156.711,129.969c0,0.109 -0.041,0.201 -0.124,0.278c-0.083,0.076 -0.179,0.115 -0.288,0.115c-0.089,0 -0.159,-0.024 -0.211,-0.072c-0.051,-0.048 -0.111,-0.097 -0.182,-0.149c-0.223,-0.178 -0.477,-0.318 -0.761,-0.417c-0.284,-0.098 -0.574,-0.148 -0.867,-0.148c-0.39,0 -0.736,0.069 -1.039,0.206c-0.304,0.138 -0.561,0.335 -0.772,0.594c-0.21,0.259 -0.37,0.572 -0.479,0.939c-0.108,0.367 -0.163,0.78 -0.163,1.24l0,6.534c0,0.128 -0.041,0.225 -0.124,0.292c-0.083,0.067 -0.173,0.101 -0.268,0.101c-0.102,0 -0.193,-0.034 -0.273,-0.101c-0.08,-0.067 -0.12,-0.164 -0.12,-0.292l0,-6.534c0,-0.523 0.068,-1.013 0.206,-1.47c0.137,-0.457 0.342,-0.856 0.613,-1.198c0.271,-0.341 0.608,-0.609 1.01,-0.804c0.403,-0.195 0.872,-0.293 1.409,-0.293c0.192,0 0.393,0.021 0.604,0.063c0.211,0.041 0.418,0.1 0.622,0.177c0.205,0.077 0.399,0.171 0.584,0.283c0.186,0.112 0.346,0.238 0.479,0.378c0.097,0.09 0.144,0.182 0.144,0.278" style="fill:#fff;fill-rule:nonzero;"/><path d="M158.747,139.381c-0.079,0.067 -0.171,0.101 -0.272,0.101c-0.096,0 -0.186,-0.034 -0.269,-0.101c-0.083,-0.067 -0.124,-0.165 -0.124,-0.292l0,-9.714c0,-0.128 0.041,-0.225 0.124,-0.292c0.083,-0.067 0.173,-0.101 0.269,-0.101c0.101,0 0.193,0.034 0.272,0.101c0.08,0.067 0.12,0.164 0.12,0.292l0,9.714c0,0.127 -0.04,0.225 -0.12,0.292m0,-12.559c-0.079,0.067 -0.171,0.1 -0.272,0.1c-0.096,0 -0.186,-0.033 -0.269,-0.1c-0.083,-0.067 -0.124,-0.165 -0.124,-0.293l0,-1.57c0,-0.128 0.041,-0.224 0.124,-0.288c0.083,-0.064 0.173,-0.096 0.269,-0.096c0.101,0 0.193,0.032 0.272,0.096c0.08,0.064 0.12,0.16 0.12,0.288l0,1.57c0,0.128 -0.04,0.226 -0.12,0.293" style="fill:#fff;fill-rule:nonzero;"/><path d="M167.509,132.424c0,-0.39 -0.075,-0.76 -0.226,-1.108c-0.15,-0.348 -0.352,-0.65 -0.608,-0.906c-0.255,-0.256 -0.557,-0.459 -0.905,-0.609c-0.349,-0.15 -0.717,-0.226 -1.107,-0.226c-0.396,0 -0.766,0.076 -1.111,0.226c-0.345,0.15 -0.646,0.353 -0.9,0.609c-0.255,0.256 -0.459,0.558 -0.609,0.906c-0.149,0.348 -0.224,0.718 -0.224,1.108l0,3.634c0,0.39 0.075,0.758 0.224,1.103c0.15,0.345 0.354,0.647 0.609,0.907c0.254,0.258 0.555,0.463 0.9,0.613c0.345,0.15 0.715,0.225 1.111,0.225c0.39,0 0.758,-0.075 1.107,-0.225c0.348,-0.15 0.65,-0.355 0.905,-0.613c0.256,-0.26 0.458,-0.562 0.608,-0.907c0.151,-0.345 0.226,-0.713 0.226,-1.103l0,-3.634Zm0.498,5.036c-0.191,0.44 -0.452,0.823 -0.781,1.15c-0.329,0.325 -0.714,0.584 -1.154,0.775c-0.441,0.192 -0.911,0.288 -1.409,0.288c-0.498,0 -0.967,-0.096 -1.408,-0.288c-0.44,-0.191 -0.826,-0.45 -1.154,-0.775c-0.329,-0.327 -0.589,-0.71 -0.781,-1.15c-0.192,-0.441 -0.288,-0.911 -0.288,-1.409l0,-3.63c0,-0.498 0.096,-0.968 0.288,-1.409c0.192,-0.44 0.452,-0.825 0.781,-1.154c0.328,-0.329 0.714,-0.589 1.154,-0.781c0.441,-0.192 0.91,-0.287 1.408,-0.287c0.498,0 0.968,0.095 1.409,0.287c0.44,0.192 0.825,0.452 1.154,0.781c0.329,0.329 0.59,0.714 0.781,1.154c0.191,0.441 0.287,0.911 0.287,1.409l0,3.63c0,0.498 -0.096,0.968 -0.287,1.409" style="fill:#fff;fill-rule:nonzero;"/><path d="M181.055,132.421c0,-0.389 -0.074,-0.758 -0.225,-1.106c-0.15,-0.348 -0.353,-0.65 -0.608,-0.906c-0.255,-0.255 -0.557,-0.458 -0.905,-0.608c-0.349,-0.15 -0.717,-0.225 -1.107,-0.225c-0.396,0 -0.766,0.075 -1.111,0.225c-0.345,0.15 -0.646,0.353 -0.9,0.608c-0.256,0.256 -0.459,0.558 -0.609,0.906c-0.15,0.348 -0.225,0.717 -0.225,1.106l0,0.977l5.69,0l0,-0.977Zm0.671,1.648c-0.076,0.077 -0.17,0.115 -0.277,0.115l-6.084,0l0,1.872c0,0.384 0.083,0.748 0.249,1.094c0.166,0.346 0.387,0.648 0.666,0.907c0.278,0.26 0.6,0.466 0.967,0.619c0.368,0.154 0.752,0.231 1.155,0.231c0.198,0 0.41,-0.021 0.636,-0.063c0.227,-0.041 0.45,-0.102 0.666,-0.181c0.218,-0.08 0.42,-0.184 0.609,-0.312c0.188,-0.127 0.344,-0.278 0.465,-0.451c0.05,-0.069 0.105,-0.116 0.163,-0.138c0.056,-0.023 0.114,-0.033 0.172,-0.033c0.095,0 0.185,0.038 0.268,0.114c0.083,0.077 0.124,0.17 0.124,0.278c0,0.09 -0.03,0.171 -0.091,0.244c-0.06,0.074 -0.116,0.143 -0.167,0.206c-0.364,0.382 -0.798,0.661 -1.303,0.837c-0.504,0.177 -1.019,0.265 -1.542,0.265c-0.498,0 -0.977,-0.093 -1.437,-0.278c-0.46,-0.185 -0.867,-0.44 -1.222,-0.766c-0.354,-0.326 -0.636,-0.709 -0.847,-1.15c-0.211,-0.44 -0.317,-0.916 -0.317,-1.427l0,-3.631c0,-0.498 0.096,-0.967 0.288,-1.408c0.191,-0.441 0.452,-0.825 0.781,-1.155c0.328,-0.328 0.714,-0.588 1.154,-0.78c0.44,-0.192 0.91,-0.288 1.408,-0.288c0.498,0 0.968,0.096 1.408,0.288c0.441,0.192 0.826,0.452 1.155,0.78c0.329,0.33 0.589,0.714 0.781,1.155c0.191,0.441 0.287,0.91 0.287,1.408l0,1.37c0,0.109 -0.039,0.201 -0.115,0.278" style="fill:#fff;fill-rule:nonzero;"/><path d="M194.592,132.424c0,-0.39 -0.075,-0.76 -0.225,-1.108c-0.15,-0.348 -0.353,-0.65 -0.608,-0.906c-0.255,-0.256 -0.558,-0.459 -0.905,-0.609c-0.349,-0.15 -0.717,-0.226 -1.107,-0.226c-0.396,0 -0.766,0.076 -1.111,0.226c-0.345,0.15 -0.646,0.353 -0.901,0.609c-0.255,0.256 -0.458,0.558 -0.608,0.906c-0.15,0.348 -0.225,0.718 -0.225,1.108l0,3.634c0,0.39 0.075,0.758 0.225,1.103c0.15,0.345 0.353,0.647 0.608,0.907c0.255,0.258 0.556,0.463 0.901,0.613c0.345,0.15 0.715,0.225 1.111,0.225c0.39,0 0.758,-0.075 1.107,-0.225c0.347,-0.15 0.65,-0.355 0.905,-0.613c0.255,-0.26 0.458,-0.562 0.608,-0.907c0.15,-0.345 0.225,-0.713 0.225,-1.103l0,-3.634Zm0.499,5.036c-0.192,0.44 -0.452,0.823 -0.781,1.15c-0.329,0.325 -0.714,0.584 -1.155,0.775c-0.44,0.192 -0.91,0.288 -1.408,0.288c-0.498,0 -0.968,-0.096 -1.408,-0.288c-0.44,-0.191 -0.826,-0.45 -1.154,-0.775c-0.329,-0.327 -0.59,-0.71 -0.781,-1.15c-0.192,-0.441 -0.288,-0.911 -0.288,-1.409l0,-11.093c0,-0.128 0.041,-0.223 0.125,-0.287c0.082,-0.064 0.172,-0.096 0.268,-0.096c0.103,0 0.193,0.032 0.273,0.096c0.08,0.064 0.12,0.159 0.12,0.287l0,5.202c0.338,-0.422 0.752,-0.755 1.241,-1.001c0.488,-0.246 1.022,-0.369 1.604,-0.369c0.498,0 0.968,0.095 1.408,0.287c0.441,0.192 0.826,0.452 1.155,0.781c0.329,0.329 0.589,0.714 0.781,1.154c0.191,0.441 0.287,0.911 0.287,1.409l0,3.63c0,0.498 -0.096,0.968 -0.287,1.409" style="fill:#fff;fill-rule:nonzero;"/><path d="M203.818,132.421c0,-0.389 -0.075,-0.758 -0.225,-1.106c-0.15,-0.348 -0.353,-0.65 -0.608,-0.906c-0.256,-0.255 -0.558,-0.458 -0.905,-0.608c-0.349,-0.15 -0.718,-0.225 -1.107,-0.225c-0.396,0 -0.766,0.075 -1.111,0.225c-0.345,0.15 -0.646,0.353 -0.901,0.608c-0.255,0.256 -0.458,0.558 -0.608,0.906c-0.15,0.348 -0.225,0.717 -0.225,1.106l0,0.977l5.69,0l0,-0.977Zm0.671,1.648c-0.076,0.077 -0.17,0.115 -0.277,0.115l-6.084,0l0,1.872c0,0.384 0.083,0.748 0.249,1.094c0.166,0.346 0.387,0.648 0.666,0.907c0.278,0.26 0.6,0.466 0.967,0.619c0.368,0.154 0.752,0.231 1.155,0.231c0.197,0 0.41,-0.021 0.636,-0.063c0.227,-0.041 0.449,-0.102 0.666,-0.181c0.218,-0.08 0.42,-0.184 0.609,-0.312c0.188,-0.127 0.344,-0.278 0.465,-0.451c0.05,-0.069 0.105,-0.116 0.162,-0.138c0.057,-0.023 0.115,-0.033 0.173,-0.033c0.095,0 0.185,0.038 0.268,0.114c0.083,0.077 0.124,0.17 0.124,0.278c0,0.09 -0.03,0.171 -0.091,0.244c-0.06,0.074 -0.116,0.143 -0.168,0.206c-0.363,0.382 -0.797,0.661 -1.302,0.837c-0.504,0.177 -1.019,0.265 -1.542,0.265c-0.498,0 -0.978,-0.093 -1.437,-0.278c-0.461,-0.185 -0.868,-0.44 -1.222,-0.766c-0.354,-0.326 -0.636,-0.709 -0.847,-1.15c-0.211,-0.44 -0.317,-0.916 -0.317,-1.427l0,-3.631c0,-0.498 0.096,-0.967 0.288,-1.408c0.191,-0.441 0.452,-0.825 0.781,-1.155c0.328,-0.328 0.714,-0.588 1.154,-0.78c0.44,-0.192 0.91,-0.288 1.408,-0.288c0.498,0 0.968,0.096 1.408,0.288c0.441,0.192 0.826,0.452 1.155,0.78c0.329,0.33 0.589,0.714 0.781,1.155c0.191,0.441 0.287,0.91 0.287,1.408l0,1.37c0,0.109 -0.039,0.201 -0.115,0.278" style="fill:#fff;fill-rule:nonzero;"/><path d="M208.724,139.29c0,0.096 -0.035,0.184 -0.105,0.263c-0.071,0.08 -0.161,0.12 -0.269,0.12c-0.083,0 -0.164,-0.019 -0.244,-0.058c-0.08,-0.038 -0.149,-0.076 -0.206,-0.115c-0.243,-0.153 -0.449,-0.338 -0.618,-0.555c-0.169,-0.217 -0.309,-0.453 -0.416,-0.709c-0.11,-0.256 -0.188,-0.522 -0.236,-0.8c-0.048,-0.278 -0.071,-0.557 -0.071,-0.838l0,-11.64c0,-0.127 0.041,-0.223 0.124,-0.287c0.083,-0.064 0.173,-0.096 0.269,-0.096c0.101,0 0.192,0.032 0.272,0.096c0.08,0.064 0.12,0.16 0.12,0.287l0,11.64c0,0.198 0.02,0.413 0.058,0.647c0.038,0.233 0.102,0.459 0.191,0.68c0.089,0.22 0.206,0.42 0.35,0.598c0.143,0.179 0.317,0.31 0.522,0.393c0.172,0.077 0.259,0.201 0.259,0.374" style="fill:#fff;fill-rule:nonzero;"/><path d="M216.57,132.421c0,-0.389 -0.075,-0.758 -0.226,-1.106c-0.15,-0.348 -0.352,-0.65 -0.608,-0.906c-0.255,-0.255 -0.557,-0.458 -0.904,-0.608c-0.349,-0.15 -0.718,-0.225 -1.108,-0.225c-0.395,0 -0.765,0.075 -1.111,0.225c-0.345,0.15 -0.645,0.353 -0.9,0.608c-0.255,0.256 -0.458,0.558 -0.608,0.906c-0.15,0.348 -0.225,0.717 -0.225,1.106l0,0.977l5.69,0l0,-0.977Zm0.67,1.648c-0.076,0.077 -0.169,0.115 -0.277,0.115l-6.083,0l0,1.872c0,0.384 0.082,0.748 0.249,1.094c0.166,0.346 0.387,0.648 0.666,0.907c0.277,0.26 0.599,0.466 0.967,0.619c0.368,0.154 0.751,0.231 1.155,0.231c0.197,0 0.409,-0.021 0.636,-0.063c0.227,-0.041 0.449,-0.102 0.666,-0.181c0.217,-0.08 0.42,-0.184 0.608,-0.312c0.189,-0.127 0.344,-0.278 0.465,-0.451c0.051,-0.069 0.105,-0.116 0.163,-0.138c0.057,-0.023 0.115,-0.033 0.172,-0.033c0.096,0 0.185,0.038 0.269,0.114c0.082,0.077 0.124,0.17 0.124,0.278c0,0.09 -0.03,0.171 -0.092,0.244c-0.06,0.074 -0.116,0.143 -0.167,0.206c-0.364,0.382 -0.798,0.661 -1.302,0.837c-0.505,0.177 -1.019,0.265 -1.542,0.265c-0.499,0 -0.978,-0.093 -1.438,-0.278c-0.46,-0.185 -0.867,-0.44 -1.221,-0.766c-0.354,-0.326 -0.637,-0.709 -0.848,-1.15c-0.211,-0.44 -0.317,-0.916 -0.317,-1.427l0,-3.631c0,-0.498 0.097,-0.967 0.289,-1.408c0.191,-0.441 0.452,-0.825 0.78,-1.155c0.329,-0.328 0.714,-0.588 1.154,-0.78c0.441,-0.192 0.91,-0.288 1.408,-0.288c0.498,0 0.968,0.096 1.409,0.288c0.441,0.192 0.825,0.452 1.155,0.78c0.328,0.33 0.589,0.714 0.78,1.155c0.191,0.441 0.287,0.91 0.287,1.408l0,1.37c0,0.109 -0.038,0.201 -0.115,0.278" style="fill:#fff;fill-rule:nonzero;"/><path d="M225.728,139.089c0,0.103 -0.03,0.193 -0.091,0.273c-0.06,0.08 -0.161,0.12 -0.302,0.12l-6.293,0c-0.128,0 -0.229,-0.03 -0.301,-0.091c-0.075,-0.061 -0.111,-0.142 -0.111,-0.244c0,-0.038 0.006,-0.08 0.019,-0.125c0.013,-0.044 0.038,-0.092 0.077,-0.143l5.824,-9.111l-5.058,0c-0.127,0 -0.225,-0.04 -0.292,-0.119c-0.067,-0.081 -0.101,-0.171 -0.101,-0.274c0,-0.096 0.034,-0.185 0.101,-0.268c0.067,-0.083 0.165,-0.124 0.292,-0.124l5.767,0c0.141,0 0.247,0.031 0.322,0.095c0.072,0.064 0.109,0.144 0.109,0.24c0,0.077 -0.032,0.169 -0.096,0.278l-5.834,9.1l5.575,0c0.141,0 0.242,0.042 0.302,0.125c0.061,0.083 0.091,0.172 0.091,0.268" style="fill:#fff;fill-rule:nonzero;"/><path d="M233.047,133.839l-2.787,0.632c-0.345,0.077 -0.663,0.182 -0.953,0.316c-0.291,0.135 -0.541,0.294 -0.752,0.479c-0.211,0.186 -0.375,0.4 -0.493,0.642c-0.119,0.243 -0.178,0.508 -0.178,0.795c0,0.339 0.064,0.644 0.191,0.915c0.128,0.272 0.307,0.503 0.537,0.695c0.23,0.192 0.505,0.338 0.824,0.441c0.319,0.102 0.668,0.153 1.044,0.153c0.365,0 0.703,-0.059 1.015,-0.178c0.314,-0.118 0.585,-0.284 0.815,-0.497c0.229,-0.214 0.41,-0.468 0.541,-0.762c0.131,-0.294 0.196,-0.613 0.196,-0.958l0,-2.673Zm0.518,3.952c-0.179,0.386 -0.421,0.72 -0.729,1.001c-0.306,0.281 -0.662,0.498 -1.067,0.651c-0.406,0.153 -0.835,0.23 -1.289,0.23c-0.447,0 -0.874,-0.065 -1.284,-0.196c-0.409,-0.131 -0.767,-0.323 -1.077,-0.575c-0.31,-0.252 -0.557,-0.563 -0.743,-0.934c-0.185,-0.371 -0.277,-0.796 -0.277,-1.274c0,-0.434 0.082,-0.821 0.248,-1.159c0.167,-0.339 0.388,-0.633 0.667,-0.882c0.277,-0.249 0.599,-0.455 0.968,-0.618c0.367,-0.162 0.754,-0.288 1.163,-0.378l2.902,-0.632l0,-1.054c0,-0.358 -0.052,-0.683 -0.157,-0.977c-0.106,-0.294 -0.264,-0.547 -0.475,-0.757c-0.211,-0.211 -0.473,-0.374 -0.79,-0.488c-0.316,-0.116 -0.684,-0.173 -1.106,-0.173c-0.46,0 -0.828,0.061 -1.107,0.182c-0.278,0.122 -0.505,0.257 -0.68,0.407c-0.176,0.15 -0.316,0.286 -0.421,0.407c-0.106,0.121 -0.213,0.182 -0.322,0.182c-0.101,0 -0.193,-0.035 -0.272,-0.105c-0.08,-0.07 -0.12,-0.16 -0.12,-0.268c0,-0.09 0.025,-0.173 0.076,-0.25c0.051,-0.076 0.103,-0.143 0.154,-0.201c0.344,-0.402 0.753,-0.693 1.226,-0.871c0.473,-0.179 0.961,-0.269 1.466,-0.269c0.529,0 1.001,0.079 1.413,0.236c0.411,0.156 0.758,0.375 1.039,0.655c0.281,0.282 0.495,0.616 0.642,1.007c0.147,0.389 0.22,0.817 0.22,1.283l0,4.531c0,0.473 -0.09,0.902 -0.268,1.289" style="fill:#fff;fill-rule:nonzero;"/><path d="M14.137,101.692c0,-0.793 -0.149,-1.542 -0.449,-2.246c-0.3,-0.703 -0.711,-1.316 -1.235,-1.838c-0.522,-0.522 -1.136,-0.934 -1.839,-1.232c-0.705,-0.3 -1.461,-0.45 -2.27,-0.45c-0.795,0 -1.544,0.15 -2.248,0.45c-0.704,0.298 -1.317,0.71 -1.841,1.232c-0.522,0.522 -0.933,1.135 -1.233,1.838c-0.3,0.704 -0.449,1.453 -0.449,2.246l0,7.917c0,0.809 0.149,1.564 0.449,2.268c0.3,0.703 0.711,1.315 1.233,1.837c0.524,0.523 1.137,0.934 1.841,1.233c0.704,0.3 1.453,0.45 2.248,0.45c0.809,0 1.565,-0.15 2.27,-0.45c0.703,-0.299 1.317,-0.71 1.839,-1.233c0.524,-0.522 0.935,-1.134 1.235,-1.837c0.3,-0.704 0.449,-1.459 0.449,-2.268l0,-7.917Zm1.914,11.185c-0.439,1.01 -1.035,1.892 -1.788,2.645c-0.753,0.753 -1.639,1.349 -2.656,1.788c-1.019,0.439 -2.106,0.659 -3.263,0.659c-1.157,0 -2.241,-0.22 -3.252,-0.659c-1.011,-0.439 -1.893,-1.035 -2.645,-1.788c-0.753,-0.753 -1.349,-1.635 -1.789,-2.645c-0.439,-1.012 -0.658,-2.096 -0.658,-3.253l0,-7.926c0,-1.157 0.219,-2.241 0.658,-3.252c0.44,-1.01 1.036,-1.893 1.789,-2.646c0.752,-0.752 1.634,-1.348 2.645,-1.788c1.011,-0.439 2.095,-0.658 3.252,-0.658c1.13,0 2.189,0.206 3.179,0.617c0.99,0.411 1.861,0.972 2.614,1.683l0,-10.226c0,-0.432 0.133,-0.754 0.397,-0.963c0.265,-0.209 0.558,-0.313 0.878,-0.313c0.322,0 0.618,0.104 0.89,0.313c0.272,0.209 0.407,0.531 0.407,0.963l0,24.196c0,1.157 -0.219,2.241 -0.658,3.253" style="fill:#fff;fill-rule:nonzero;"/><path d="M35.553,101.697c0,-0.794 -0.149,-1.543 -0.449,-2.248c-0.3,-0.704 -0.711,-1.317 -1.235,-1.84c-0.522,-0.523 -1.136,-0.934 -1.839,-1.234c-0.705,-0.3 -1.461,-0.45 -2.27,-0.45c-0.795,0 -1.544,0.15 -2.248,0.45c-0.704,0.3 -1.317,0.711 -1.841,1.234c-0.522,0.523 -0.933,1.136 -1.233,1.84c-0.3,0.705 -0.449,1.454 -0.449,2.248l0,1.715l11.564,0l0,-1.715Zm2.186,3.901c-0.258,0.258 -0.562,0.387 -0.91,0.387l-12.84,0l0,3.63c0,0.779 0.167,1.517 0.501,2.212c0.334,0.696 0.788,1.308 1.36,1.836c0.571,0.53 1.233,0.95 1.986,1.263c0.753,0.313 1.54,0.47 2.363,0.47c0.405,0 0.84,-0.039 1.307,-0.116c0.467,-0.076 0.921,-0.198 1.36,-0.366c0.439,-0.167 0.847,-0.376 1.223,-0.627c0.377,-0.251 0.691,-0.557 0.942,-0.92c0.153,-0.195 0.32,-0.335 0.501,-0.419c0.181,-0.083 0.356,-0.125 0.523,-0.125c0.349,0 0.666,0.119 0.952,0.356c0.285,0.237 0.429,0.53 0.429,0.878c0,0.265 -0.084,0.523 -0.251,0.774c-0.028,0.042 -0.07,0.091 -0.126,0.146c-0.069,0.098 -0.189,0.238 -0.356,0.419c-0.837,0.885 -1.83,1.535 -2.98,1.95c-1.149,0.414 -2.324,0.622 -3.524,0.622c-1.128,0 -2.22,-0.213 -3.273,-0.638c-1.053,-0.425 -1.986,-1.014 -2.802,-1.767c-0.815,-0.753 -1.47,-1.638 -1.966,-2.656c-0.495,-1.018 -0.742,-2.112 -0.742,-3.284l0,-7.926c0,-1.157 0.219,-2.241 0.658,-3.251c0.44,-1.011 1.036,-1.894 1.789,-2.646c0.752,-0.753 1.634,-1.349 2.645,-1.789c1.011,-0.439 2.095,-0.658 3.252,-0.658c1.157,0 2.245,0.219 3.263,0.658c1.017,0.44 1.903,1.036 2.656,1.789c0.753,0.752 1.349,1.635 1.788,2.646c0.439,1.01 0.658,2.094 0.658,3.251l0,3.012c0,0.334 -0.129,0.631 -0.386,0.889" style="fill:#fff;fill-rule:nonzero;"/><path d="M55.212,96.344c0,0.349 -0.133,0.652 -0.397,0.91c-0.265,0.258 -0.579,0.387 -0.941,0.387c-0.293,0 -0.593,-0.132 -0.899,-0.398c-0.014,0 -0.035,-0.013 -0.064,-0.042c-0.027,-0.013 -0.052,-0.031 -0.072,-0.052c-0.022,-0.021 -0.046,-0.045 -0.073,-0.073c-0.447,-0.362 -0.955,-0.645 -1.527,-0.847c-0.572,-0.202 -1.165,-0.303 -1.778,-0.303c-1.548,0 -2.754,0.526 -3.618,1.579c-0.864,1.052 -1.296,2.555 -1.296,4.506l0,14.263c0,0.433 -0.137,0.754 -0.408,0.963c-0.273,0.209 -0.569,0.313 -0.889,0.313c-0.321,0 -0.614,-0.104 -0.879,-0.313c-0.264,-0.209 -0.397,-0.53 -0.397,-0.963l0,-14.263c0,-1.184 0.157,-2.303 0.47,-3.356c0.314,-1.053 0.785,-1.973 1.413,-2.761c0.626,-0.787 1.408,-1.407 2.341,-1.861c0.935,-0.453 2.022,-0.68 3.263,-0.68c0.432,0 0.896,0.05 1.391,0.147c0.495,0.097 0.979,0.233 1.453,0.407c0.474,0.175 0.924,0.391 1.349,0.649c0.425,0.258 0.798,0.554 1.12,0.889c0.292,0.293 0.438,0.592 0.438,0.899" style="fill:#fff;fill-rule:nonzero;"/><path d="M84.795,117.236c-0.271,0.209 -0.568,0.313 -0.889,0.313c-0.321,0 -0.613,-0.104 -0.879,-0.313c-0.264,-0.209 -0.396,-0.53 -0.396,-0.962l0,-15.434c0,-0.683 -0.129,-1.325 -0.388,-1.924c-0.258,-0.599 -0.609,-1.119 -1.055,-1.558c-0.447,-0.439 -0.97,-0.788 -1.569,-1.046c-0.599,-0.258 -1.241,-0.387 -1.924,-0.387c-0.683,0 -1.325,0.129 -1.924,0.387c-0.599,0.258 -1.119,0.607 -1.558,1.046c-0.439,0.439 -0.788,0.959 -1.046,1.558c-0.258,0.599 -0.387,1.241 -0.387,1.924l0,15.434c0,0.446 -0.135,0.777 -0.408,0.993c-0.271,0.217 -0.567,0.324 -0.889,0.324c-0.32,0 -0.613,-0.107 -0.877,-0.324c-0.266,-0.216 -0.398,-0.547 -0.398,-0.993l0,-15.434c0,-0.683 -0.129,-1.325 -0.387,-1.924c-0.257,-0.599 -0.61,-1.119 -1.056,-1.558c-0.447,-0.439 -0.969,-0.788 -1.569,-1.046c-0.599,-0.258 -1.241,-0.387 -1.923,-0.387c-0.684,0 -1.326,0.129 -1.924,0.387c-0.6,0.258 -1.119,0.607 -1.559,1.046c-0.438,0.439 -0.787,0.959 -1.045,1.558c-0.259,0.599 -0.387,1.241 -0.387,1.924l0,15.434c0,0.432 -0.136,0.753 -0.408,0.962c-0.272,0.209 -0.568,0.313 -0.888,0.313c-0.322,0 -0.615,-0.104 -0.879,-0.313c-0.265,-0.209 -0.398,-0.53 -0.398,-0.962l0,-15.434c0,-1.032 0.196,-2.004 0.586,-2.917c0.39,-0.914 0.924,-1.708 1.6,-2.385c0.676,-0.676 1.47,-1.209 2.385,-1.599c0.913,-0.39 1.884,-0.586 2.917,-0.586c1.296,0 2.488,0.3 3.576,0.899c1.088,0.6 1.966,1.401 2.634,2.405c0.67,-1.004 1.548,-1.805 2.636,-2.405c1.087,-0.599 2.28,-0.899 3.576,-0.899c1.045,0 2.021,0.196 2.928,0.586c0.906,0.39 1.701,0.923 2.384,1.599c0.683,0.677 1.22,1.471 1.61,2.385c0.391,0.913 0.586,1.885 0.586,2.917l0,15.434c0,0.432 -0.136,0.753 -0.408,0.962" style="fill:#fff;fill-rule:nonzero;"/><path d="M102.018,105.274l-5.521,1.255c-0.739,0.167 -1.412,0.394 -2.018,0.679c-0.607,0.286 -1.122,0.621 -1.547,1.004c-0.426,0.384 -0.754,0.812 -0.983,1.286c-0.231,0.474 -0.346,0.984 -0.346,1.527c0,0.669 0.126,1.272 0.377,1.809c0.251,0.537 0.603,0.994 1.056,1.37c0.453,0.376 0.997,0.669 1.631,0.878c0.634,0.21 1.342,0.314 2.123,0.314c0.753,0 1.446,-0.118 2.081,-0.356c0.634,-0.236 1.185,-0.571 1.652,-1.003c0.467,-0.432 0.833,-0.942 1.098,-1.527c0.264,-0.586 0.397,-1.227 0.397,-1.924l0,-5.312Zm1.945,8.344c-0.418,0.907 -0.983,1.68 -1.694,2.322c-0.711,0.641 -1.533,1.139 -2.468,1.495c-0.933,0.356 -1.924,0.533 -2.97,0.533c-1.017,0 -1.997,-0.146 -2.937,-0.439c-0.941,-0.293 -1.772,-0.729 -2.489,-1.307c-0.718,-0.578 -1.293,-1.297 -1.726,-2.154c-0.432,-0.857 -0.648,-1.851 -0.648,-2.981c0,-1.073 0.21,-2.014 0.628,-2.822c0.418,-0.809 0.972,-1.507 1.663,-2.092c0.689,-0.586 1.487,-1.066 2.394,-1.443c0.906,-0.376 1.847,-0.669 2.823,-0.878c0.641,-0.14 1.29,-0.279 1.945,-0.419c0.557,-0.111 1.153,-0.236 1.788,-0.376c0.635,-0.139 1.217,-0.264 1.746,-0.376l0,-1.967c0,-0.71 -0.104,-1.362 -0.313,-1.955c-0.209,-0.592 -0.523,-1.098 -0.942,-1.516c-0.418,-0.418 -0.948,-0.742 -1.589,-0.972c-0.641,-0.23 -1.394,-0.346 -2.259,-0.346c-0.682,0 -1.261,0.063 -1.735,0.189c-0.474,0.125 -0.879,0.286 -1.214,0.481c-0.334,0.195 -0.616,0.401 -0.846,0.616c-0.23,0.217 -0.436,0.423 -0.618,0.618c-0.18,0.195 -0.351,0.355 -0.511,0.481c-0.161,0.125 -0.345,0.188 -0.555,0.188c-0.32,0 -0.62,-0.119 -0.898,-0.355c-0.28,-0.238 -0.419,-0.537 -0.419,-0.9c0,-0.237 0.059,-0.46 0.177,-0.669c0.118,-0.209 0.254,-0.397 0.409,-0.565c0.375,-0.474 0.804,-0.878 1.286,-1.213c0.48,-0.334 0.989,-0.609 1.526,-0.826c0.536,-0.216 1.095,-0.373 1.673,-0.47c0.579,-0.098 1.153,-0.147 1.725,-0.147c1.213,0 2.293,0.182 3.242,0.544c0.948,0.363 1.753,0.872 2.416,1.527c0.662,0.655 1.164,1.433 1.506,2.331c0.34,0.9 0.511,1.886 0.511,2.959l0,9.893c0,1.101 -0.209,2.105 -0.627,3.011" style="fill:#fff;fill-rule:nonzero;"/><path d="M123.31,114.58c0,0.196 -0.067,0.374 -0.199,0.534c-0.133,0.16 -0.255,0.31 -0.366,0.449c-0.795,0.832 -1.744,1.441 -2.844,1.827c-1.103,0.385 -2.225,0.578 -3.368,0.578c-1.129,0 -2.164,-0.167 -3.106,-0.502c-0.94,-0.335 -1.75,-0.805 -2.426,-1.411c-0.675,-0.607 -1.199,-1.335 -1.568,-2.186c-0.369,-0.851 -0.555,-1.791 -0.555,-2.823l0,-9.892c0,-1.046 0.186,-1.994 0.555,-2.845c0.369,-0.85 0.893,-1.579 1.568,-2.185c0.676,-0.606 1.486,-1.077 2.426,-1.412c0.942,-0.334 1.977,-0.502 3.106,-0.502c0.557,0 1.146,0.06 1.767,0.178c0.62,0.119 1.231,0.296 1.83,0.534c0.599,0.237 1.164,0.54 1.695,0.909c0.529,0.37 0.982,0.812 1.358,1.329c0.085,0.167 0.127,0.327 0.127,0.481c0,0.236 -0.092,0.439 -0.272,0.606c-0.182,0.167 -0.391,0.25 -0.627,0.25c-0.239,0 -0.416,-0.076 -0.534,-0.229c-0.119,-0.153 -0.241,-0.307 -0.366,-0.46c-0.641,-0.655 -1.405,-1.133 -2.291,-1.433c-0.886,-0.299 -1.781,-0.45 -2.687,-0.45c-0.949,0 -1.788,0.13 -2.52,0.387c-0.732,0.259 -1.352,0.618 -1.861,1.079c-0.51,0.46 -0.897,1.012 -1.16,1.654c-0.266,0.642 -0.399,1.347 -0.399,2.114l0,9.902c0,0.754 0.133,1.452 0.399,2.094c0.263,0.642 0.65,1.197 1.16,1.664c0.509,0.468 1.129,0.831 1.861,1.089c0.732,0.258 1.571,0.387 2.52,0.387c0.432,0 0.895,-0.045 1.391,-0.136c0.494,-0.09 0.979,-0.223 1.453,-0.397c0.474,-0.174 0.916,-0.401 1.329,-0.68c0.411,-0.278 0.749,-0.606 1.014,-0.983c0.111,-0.153 0.23,-0.254 0.356,-0.303c0.125,-0.049 0.251,-0.073 0.376,-0.073c0.223,0 0.421,0.084 0.595,0.251c0.175,0.167 0.263,0.369 0.263,0.606" style="fill:#fff;fill-rule:nonzero;"/><path d="M141.295,102.143c0,-0.851 -0.164,-1.657 -0.491,-2.417c-0.328,-0.762 -0.771,-1.421 -1.328,-1.979c-0.558,-0.558 -1.217,-1.001 -1.976,-1.329c-0.761,-0.328 -1.566,-0.493 -2.416,-0.493c-0.864,0 -1.674,0.165 -2.426,0.493c-0.754,0.328 -1.409,0.771 -1.966,1.329c-0.557,0.558 -1.001,1.217 -1.328,1.979c-0.328,0.76 -0.491,1.566 -0.491,2.417l0,7.935c0,0.851 0.163,1.653 0.491,2.407c0.327,0.754 0.771,1.413 1.328,1.978c0.557,0.566 1.212,1.012 1.966,1.34c0.752,0.328 1.562,0.492 2.426,0.492c0.85,0 1.655,-0.164 2.416,-0.492c0.759,-0.328 1.418,-0.774 1.976,-1.34c0.557,-0.565 1,-1.224 1.328,-1.978c0.327,-0.754 0.491,-1.556 0.491,-2.407l0,-7.935Zm1.088,10.994c-0.419,0.962 -0.986,1.799 -1.705,2.509c-0.718,0.712 -1.558,1.276 -2.52,1.695c-0.962,0.418 -1.986,0.627 -3.074,0.627c-1.088,0 -2.112,-0.209 -3.074,-0.627c-0.962,-0.419 -1.802,-0.983 -2.521,-1.695c-0.717,-0.71 -1.286,-1.547 -1.704,-2.509c-0.419,-0.962 -0.628,-1.987 -0.628,-3.074l0,-7.926c0,-1.088 0.209,-2.113 0.628,-3.075c0.418,-0.961 0.987,-1.801 1.704,-2.52c0.719,-0.718 1.559,-1.286 2.521,-1.704c0.962,-0.418 1.986,-0.628 3.074,-0.628c1.088,0 2.112,0.21 3.074,0.628c0.962,0.418 1.802,0.986 2.52,1.704c0.719,0.719 1.286,1.559 1.705,2.52c0.418,0.962 0.627,1.987 0.627,3.075l0,7.926c0,1.087 -0.209,2.112 -0.627,3.074" style="fill:#fff;fill-rule:nonzero;"/><path d="M159.679,96.783c0,0.238 -0.091,0.439 -0.271,0.606c-0.182,0.168 -0.391,0.252 -0.627,0.252c-0.197,0 -0.35,-0.053 -0.461,-0.157c-0.112,-0.105 -0.245,-0.213 -0.398,-0.324c-0.488,-0.391 -1.042,-0.694 -1.662,-0.91c-0.621,-0.216 -1.252,-0.324 -1.893,-0.324c-0.85,0 -1.607,0.15 -2.269,0.449c-0.662,0.301 -1.223,0.732 -1.684,1.297c-0.46,0.565 -0.808,1.248 -1.045,2.049c-0.238,0.803 -0.355,1.705 -0.355,2.709l0,14.263c0,0.278 -0.091,0.491 -0.273,0.638c-0.181,0.146 -0.375,0.219 -0.585,0.219c-0.223,0 -0.422,-0.073 -0.596,-0.219c-0.175,-0.147 -0.262,-0.36 -0.262,-0.638l0,-14.263c0,-1.143 0.151,-2.213 0.449,-3.21c0.3,-0.997 0.747,-1.869 1.34,-2.615c0.592,-0.745 1.327,-1.331 2.206,-1.757c0.878,-0.424 1.904,-0.637 3.074,-0.637c0.418,0 0.858,0.045 1.318,0.136c0.46,0.091 0.913,0.219 1.359,0.387c0.447,0.167 0.871,0.373 1.276,0.617c0.404,0.244 0.753,0.519 1.046,0.826c0.209,0.195 0.313,0.397 0.313,0.606" style="fill:#fff;fill-rule:nonzero;"/><path d="M176.39,102.143c0,-0.851 -0.164,-1.657 -0.491,-2.417c-0.328,-0.762 -0.771,-1.421 -1.328,-1.979c-0.559,-0.558 -1.217,-1.001 -1.977,-1.329c-0.76,-0.328 -1.565,-0.493 -2.416,-0.493c-0.864,0 -1.673,0.165 -2.426,0.493c-0.753,0.328 -1.408,0.771 -1.966,1.329c-0.557,0.558 -1,1.217 -1.327,1.979c-0.328,0.76 -0.492,1.566 -0.492,2.417l0,7.935c0,0.851 0.164,1.653 0.492,2.407c0.327,0.754 0.77,1.413 1.327,1.978c0.558,0.566 1.213,1.012 1.966,1.34c0.753,0.328 1.562,0.492 2.426,0.492c0.851,0 1.656,-0.164 2.416,-0.492c0.76,-0.328 1.418,-0.774 1.977,-1.34c0.557,-0.565 1,-1.224 1.328,-1.978c0.327,-0.754 0.491,-1.556 0.491,-2.407l0,-7.935Zm1.087,10.994c-0.418,0.962 -0.986,1.799 -1.704,2.509c-0.718,0.712 -1.558,1.276 -2.52,1.695c-0.962,0.418 -1.987,0.627 -3.075,0.627c-1.268,0 -2.439,-0.269 -3.513,-0.805c-1.074,-0.537 -1.973,-1.265 -2.698,-2.186l0,10.29c0,0.278 -0.091,0.491 -0.271,0.638c-0.182,0.146 -0.377,0.219 -0.586,0.219c-0.224,0 -0.422,-0.073 -0.596,-0.219c-0.175,-0.147 -0.262,-0.36 -0.262,-0.638l0,-23.13c0,-1.088 0.209,-2.113 0.627,-3.075c0.419,-0.961 0.988,-1.801 1.705,-2.52c0.718,-0.718 1.558,-1.286 2.52,-1.704c0.962,-0.418 1.987,-0.628 3.074,-0.628c1.088,0 2.113,0.21 3.075,0.628c0.962,0.418 1.802,0.986 2.52,1.704c0.718,0.719 1.286,1.559 1.704,2.52c0.418,0.962 0.628,1.987 0.628,3.075l0,7.926c0,1.087 -0.21,2.112 -0.628,3.074" style="fill:#fff;fill-rule:nonzero;"/><path d="M196.531,102.143c0,-0.851 -0.164,-1.657 -0.491,-2.417c-0.328,-0.762 -0.771,-1.421 -1.328,-1.979c-0.559,-0.558 -1.217,-1.001 -1.977,-1.329c-0.76,-0.328 -1.565,-0.493 -2.416,-0.493c-0.864,0 -1.673,0.165 -2.426,0.493c-0.753,0.328 -1.408,0.771 -1.966,1.329c-0.557,0.558 -1,1.217 -1.327,1.979c-0.328,0.76 -0.492,1.566 -0.492,2.417l0,7.935c0,0.851 0.164,1.653 0.492,2.407c0.327,0.754 0.77,1.413 1.327,1.978c0.558,0.566 1.213,1.012 1.966,1.34c0.753,0.328 1.562,0.492 2.426,0.492c0.851,0 1.656,-0.164 2.416,-0.492c0.76,-0.328 1.418,-0.774 1.977,-1.34c0.557,-0.565 1,-1.224 1.328,-1.978c0.327,-0.754 0.491,-1.556 0.491,-2.407l0,-7.935Zm1.087,10.994c-0.418,0.962 -0.986,1.799 -1.704,2.509c-0.718,0.712 -1.558,1.276 -2.52,1.695c-0.962,0.418 -1.987,0.627 -3.075,0.627c-1.087,0 -2.112,-0.209 -3.074,-0.627c-0.962,-0.419 -1.802,-0.983 -2.52,-1.695c-0.717,-0.71 -1.286,-1.547 -1.705,-2.509c-0.418,-0.962 -0.627,-1.987 -0.627,-3.074l0,-7.926c0,-1.088 0.209,-2.113 0.627,-3.075c0.419,-0.961 0.988,-1.801 1.705,-2.52c0.718,-0.718 1.558,-1.286 2.52,-1.704c0.962,-0.418 1.987,-0.628 3.074,-0.628c1.088,0 2.113,0.21 3.075,0.628c0.962,0.418 1.802,0.986 2.52,1.704c0.718,0.719 1.286,1.559 1.704,2.52c0.418,0.962 0.628,1.987 0.628,3.075l0,7.926c0,1.087 -0.21,2.112 -0.628,3.074" style="fill:#fff;fill-rule:nonzero;"/><path d="M214.913,96.783c0,0.238 -0.091,0.439 -0.271,0.606c-0.182,0.168 -0.391,0.252 -0.628,0.252c-0.196,0 -0.349,-0.053 -0.46,-0.157c-0.112,-0.105 -0.245,-0.213 -0.398,-0.324c-0.488,-0.391 -1.042,-0.694 -1.662,-0.91c-0.621,-0.216 -1.252,-0.324 -1.893,-0.324c-0.85,0 -1.607,0.15 -2.269,0.449c-0.662,0.301 -1.223,0.732 -1.684,1.297c-0.46,0.565 -0.808,1.248 -1.045,2.049c-0.238,0.803 -0.355,1.705 -0.355,2.709l0,14.263c0,0.278 -0.092,0.491 -0.273,0.638c-0.181,0.146 -0.375,0.219 -0.585,0.219c-0.223,0 -0.422,-0.073 -0.596,-0.219c-0.175,-0.147 -0.262,-0.36 -0.262,-0.638l0,-14.263c0,-1.143 0.15,-2.213 0.449,-3.21c0.3,-0.997 0.747,-1.869 1.339,-2.615c0.593,-0.745 1.328,-1.331 2.207,-1.757c0.878,-0.424 1.904,-0.637 3.074,-0.637c0.418,0 0.857,0.045 1.318,0.136c0.46,0.091 0.913,0.219 1.359,0.387c0.446,0.167 0.871,0.373 1.276,0.617c0.404,0.244 0.753,0.519 1.046,0.826c0.209,0.195 0.313,0.397 0.313,0.606" style="fill:#fff;fill-rule:nonzero;"/><path d="M231.624,102.137c0,-0.85 -0.164,-1.655 -0.491,-2.416c-0.328,-0.759 -0.771,-1.418 -1.328,-1.976c-0.559,-0.557 -1.217,-1 -1.977,-1.328c-0.76,-0.327 -1.565,-0.491 -2.416,-0.491c-0.864,0 -1.673,0.164 -2.426,0.491c-0.753,0.328 -1.408,0.771 -1.966,1.328c-0.557,0.558 -1,1.217 -1.328,1.976c-0.327,0.761 -0.491,1.566 -0.491,2.416l0,2.133l12.423,0l0,-2.133Zm1.464,3.597c-0.167,0.168 -0.37,0.251 -0.607,0.251l-13.28,0l0,4.087c0,0.838 0.181,1.634 0.544,2.388c0.362,0.755 0.847,1.415 1.453,1.981c0.607,0.566 1.311,1.016 2.113,1.351c0.801,0.336 1.641,0.503 2.519,0.503c0.433,0 0.897,-0.045 1.392,-0.136c0.495,-0.09 0.979,-0.222 1.453,-0.397c0.474,-0.174 0.917,-0.401 1.328,-0.68c0.411,-0.278 0.749,-0.606 1.015,-0.983c0.111,-0.153 0.229,-0.254 0.355,-0.303c0.125,-0.049 0.251,-0.073 0.376,-0.073c0.21,0 0.404,0.084 0.586,0.251c0.181,0.167 0.272,0.37 0.272,0.606c0,0.196 -0.067,0.374 -0.199,0.534c-0.133,0.16 -0.255,0.31 -0.366,0.45c-0.795,0.832 -1.743,1.44 -2.844,1.826c-1.102,0.386 -2.224,0.579 -3.368,0.579c-1.087,0 -2.133,-0.203 -3.137,-0.607c-1.004,-0.404 -1.892,-0.962 -2.666,-1.673c-0.773,-0.711 -1.39,-1.548 -1.85,-2.51c-0.46,-0.961 -0.691,-2 -0.691,-3.116l0,-7.926c0,-1.087 0.209,-2.112 0.627,-3.074c0.419,-0.962 0.988,-1.802 1.705,-2.52c0.718,-0.718 1.558,-1.286 2.52,-1.705c0.962,-0.418 1.987,-0.627 3.074,-0.627c1.088,0 2.113,0.209 3.075,0.627c0.962,0.419 1.802,0.987 2.52,1.705c0.718,0.718 1.286,1.558 1.704,2.52c0.418,0.962 0.628,1.987 0.628,3.074l0,2.991c0,0.237 -0.084,0.439 -0.251,0.606" style="fill:#fff;fill-rule:nonzero;"/><path d="M152.818,21.873c0.147,0 0.294,0.011 0.442,0.011c1.508,-8.034 2.352,-15.631 2.782,-21.884c-27.135,4.526 -79.187,19.392 -78.235,58.851c17.298,-22.478 44.453,-36.978 75.011,-36.978" style="fill:#00aeef;"/><path d="M89.654,29.061c-11.447,12.139 -16.41,28.78 -6.682,51.439c11.768,3.755 21.679,3.986 30.02,1.704c-12.818,-14.456 -21.292,-32.848 -23.338,-53.143" style="fill:#bed730;"/><path d="M77.806,58.521c0.002,0.109 0.001,0.217 0.004,0.327c4.27,-5.549 9.143,-10.609 14.517,-15.087c-1.262,-4.761 -2.166,-9.669 -2.672,-14.694c-0.116,0.122 -0.23,0.245 -0.344,0.368c-0.186,0.2 -0.371,0.4 -0.553,0.604c-0.177,0.197 -0.349,0.397 -0.523,0.596c-0.176,0.203 -0.353,0.406 -0.526,0.611c-0.174,0.207 -0.343,0.416 -0.513,0.626c-0.164,0.202 -0.33,0.403 -0.491,0.607c-0.175,0.223 -0.345,0.449 -0.516,0.674c-0.149,0.196 -0.299,0.39 -0.444,0.588c-0.182,0.249 -0.358,0.503 -0.536,0.755c-0.126,0.179 -0.255,0.357 -0.378,0.538c-0.221,0.324 -0.434,0.654 -0.646,0.983c-0.072,0.113 -0.149,0.224 -0.22,0.337c-0.282,0.449 -0.555,0.902 -0.821,1.36c-0.05,0.087 -0.096,0.175 -0.146,0.262c-0.212,0.374 -0.422,0.75 -0.624,1.13c-0.073,0.14 -0.141,0.283 -0.214,0.423c-0.169,0.332 -0.339,0.663 -0.5,0.999c-0.079,0.163 -0.151,0.328 -0.226,0.492c-0.148,0.319 -0.295,0.638 -0.435,0.962c-0.075,0.174 -0.145,0.352 -0.217,0.528c-0.132,0.318 -0.264,0.637 -0.387,0.96c-0.069,0.181 -0.134,0.364 -0.201,0.547c-0.118,0.322 -0.235,0.645 -0.345,0.972c-0.063,0.187 -0.121,0.375 -0.182,0.564c-0.104,0.328 -0.207,0.657 -0.303,0.99c-0.055,0.189 -0.107,0.381 -0.16,0.572c-0.092,0.337 -0.181,0.675 -0.264,1.016c-0.047,0.192 -0.092,0.385 -0.136,0.578c-0.079,0.347 -0.154,0.695 -0.225,1.045c-0.038,0.193 -0.075,0.387 -0.111,0.58c-0.066,0.358 -0.127,0.719 -0.183,1.082c-0.03,0.191 -0.059,0.382 -0.086,0.575c-0.053,0.372 -0.099,0.748 -0.141,1.126c-0.022,0.187 -0.043,0.375 -0.062,0.563c-0.038,0.391 -0.069,0.785 -0.096,1.181c-0.013,0.181 -0.027,0.359 -0.036,0.54c-0.024,0.416 -0.038,0.837 -0.049,1.259c-0.005,0.165 -0.011,0.329 -0.014,0.495c-0.007,0.452 -0.003,0.908 0.005,1.366" style="fill:#00a650;"/><path d="M136.715,4.259c0.177,1.891 0.278,3.806 0.278,5.743c0,32.391 -25.508,58.82 -57.536,60.307c0.834,3.255 1.994,6.648 3.515,10.191c57.967,18.503 70.867,-48.517 73.069,-80.5c-5.604,0.935 -12.28,2.317 -19.326,4.259" style="fill:#d7df22;"/><path d="M86.227,81.453c0.547,0.149 1.091,0.292 1.629,0.425c0.298,0.074 0.595,0.144 0.891,0.213c0.512,0.119 1.02,0.231 1.525,0.336c0.283,0.059 0.567,0.12 0.848,0.175c0.58,0.113 1.154,0.214 1.723,0.309c0.188,0.03 0.379,0.068 0.565,0.097c0.735,0.115 1.46,0.213 2.177,0.298c0.248,0.028 0.492,0.049 0.738,0.075c0.482,0.05 0.964,0.097 1.439,0.134c0.288,0.022 0.573,0.04 0.859,0.057c0.434,0.027 0.866,0.048 1.294,0.063c0.282,0.01 0.563,0.02 0.841,0.025c0.456,0.008 0.907,0.007 1.356,0.003c0.233,-0.002 0.469,0 0.702,-0.005c0.654,-0.016 1.303,-0.044 1.941,-0.087c0.193,-0.013 0.38,-0.034 0.572,-0.049c0.464,-0.037 0.927,-0.078 1.384,-0.129c0.249,-0.028 0.496,-0.061 0.745,-0.093c0.398,-0.052 0.793,-0.108 1.186,-0.17c0.246,-0.039 0.492,-0.079 0.735,-0.122c0.412,-0.074 0.819,-0.154 1.222,-0.238c0.206,-0.043 0.414,-0.083 0.619,-0.129c0.598,-0.135 1.191,-0.279 1.774,-0.438c-4.594,-5.18 -8.618,-10.873 -11.998,-16.97c-6.64,2.934 -13.899,4.721 -21.537,5.076c0.196,0.761 0.413,1.532 0.644,2.309c0.053,0.178 0.111,0.358 0.166,0.538c0.183,0.592 0.374,1.189 0.578,1.791c0.079,0.235 0.161,0.472 0.244,0.709c0.202,0.579 0.417,1.162 0.64,1.749c0.085,0.224 0.166,0.446 0.254,0.671c0.312,0.801 0.639,1.607 0.989,2.423c0.83,0.266 1.649,0.508 2.46,0.738c0.267,0.076 0.53,0.144 0.795,0.216" style="fill:#8cc63f;"/><path d="M153.75,0.398c-0.658,0.118 -1.328,0.242 -2.011,0.372c-0.074,0.014 -0.149,0.029 -0.224,0.043c-4.537,0.871 -9.566,2.004 -14.8,3.446c0.177,1.891 0.278,3.806 0.278,5.743c0,4.632 -0.538,9.135 -1.525,13.468c5.625,-1.044 11.422,-1.596 17.349,-1.596c0.148,0 0.294,0.011 0.443,0.011c0.752,-4.003 1.337,-7.895 1.79,-11.569c0.003,-0.022 0.006,-0.044 0.008,-0.066c0.108,-0.879 0.208,-1.744 0.3,-2.596c0.011,-0.094 0.021,-0.188 0.031,-0.282c0.084,-0.774 0.161,-1.537 0.233,-2.287c0.007,-0.072 0.014,-0.146 0.022,-0.219c0.071,-0.758 0.135,-1.499 0.196,-2.228c0.014,-0.173 0.028,-0.344 0.042,-0.514c0.057,-0.722 0.112,-1.434 0.159,-2.123c-0.63,0.105 -1.278,0.217 -1.936,0.334c-0.118,0.021 -0.236,0.042 -0.355,0.063" style="fill:#00a650;"/></svg>